<svg xmlns="http://www.w3.org/2000/svg" xml:space="preserve" width="512" height="512" fill-rule="evenodd" clip-rule="evenodd" image-rendering="optimizeQuality" shape-rendering="geometricPrecision" text-rendering="geometricPrecision"><path fill="#5865f2" d="M105 0h302c57.928.155 104.845 47.072 105 104.996V407c-.155 57.926-47.072 104.844-104.996 104.998L105 512C47.074 511.844.156 464.926.002 407.003L0 105C.156 47.072 47.074.155 104.997 0Z" style="fill:#e0f2ff;fill-opacity:1"/><path fill="#05a3c9" d="M219.47 110.614c-19.53 10.174-35.51 18.783-35.506 19.133.009.904 46.874 24.639 48.537 24.58.757-.025 6.246-2.551 12.198-5.614l10.822-5.566 11.82 6.075 11.82 6.077 19.356-8.697c29.166-13.106 32.195-14.543 31.72-15.025-.63-.64-11.091-6.26-39.473-21.202-13.717-7.222-27.03-14.303-29.586-15.736-2.556-1.432-4.995-2.585-5.421-2.563-.427.023-16.756 8.365-36.287 18.538zm-85.661 44.358-20.331 10.502v46.09c0 25.35.267 46.09.594 46.09.326 0 10.33-4.336 22.228-9.636l21.635-9.636V189.8l10.572 5.76a12563.465 12563.465 0 0 0 24.455 13.276l13.882 7.517 6.177-2.794a1445.266 1445.266 0 0 0 11.6-5.315c2.981-1.388 10.3-4.685 16.264-7.327 5.964-2.643 11.484-5.301 12.267-5.907 1.04-.805-11.64-7.812-46.9-25.918-26.577-13.648-49.175-24.771-50.217-24.718-1.042.053-11.044 4.822-22.226 10.598zm200.092 2.95c-13.847 6.25-25.185 11.615-25.198 11.92-.012.306 7.535 4.794 16.772 9.971 9.236 5.179 16.794 9.693 16.794 10.033 0 .339-8.174 4.3-18.162 8.802a70420.71 70420.71 0 0 0-56.114 25.34l-69.939 31.614-35.24 15.932c-35.934 16.267-45.811 20.781-47.168 21.556-1.364.78-1.673 5.312-1.915 28.058l-.29 27.13 18.18 9.263 18.182 9.264 25.21-11.378c13.866-6.257 25.21-11.704 25.21-12.106 0-.4-2.562-2.07-5.692-3.711-3.132-1.642-9.597-5.277-14.368-8.079-4.77-2.802-9.528-5.373-10.572-5.714-1.044-.34-1.883-.935-1.866-1.323.017-.387 11.119-5.66 24.668-11.719 26.318-11.766 46.458-20.835 89.696-40.389a115551.31 115551.31 0 0 1 58.011-26.209c16.997-7.671 36.758-16.631 43.915-19.91l13.012-5.963.29-27.438.29-27.437-18.44-9.465c-10.143-5.205-18.812-9.451-19.266-9.436-.454.014-12.154 5.141-26 11.394zm58.186 98.986c-2.718 1.328-8.085 3.813-11.928 5.522-3.842 1.71-11.135 5-16.204 7.313l-9.217 4.204-.21 24.088c-.116 13.248-.604 24.03-1.084 23.96-1.091-.163-18.365-9.022-35.73-18.327-12.532-6.714-13.32-6.981-16.264-5.523-1.703.844-11.879 5.408-22.614 10.144-10.735 4.735-19.868 8.92-20.297 9.298-.429.378 21.177 12.088 48.012 26.023l48.792 25.337 20.842-10.782c11.463-5.93 21.21-11.338 21.658-12.018 1.01-1.53.924-91.862-.087-91.74-.4.048-2.952 1.174-5.67 2.501zm-115.42 106.028a9458.537 9458.537 0 0 0-10.842 4.67c-10.912 4.72-8.774 4.877-21.755-1.586-8.646-4.304-12.373-5.632-13.991-4.987-1.214.483-11.657 5.181-23.209 10.44-11.551 5.259-21.403 9.562-21.894 9.562-4.846 0 3.211 4.814 34.303 20.497l36.464 18.392 15.341-7.574c8.439-4.166 25.458-12.508 37.822-18.538 12.364-6.031 22.327-11.122 22.14-11.314-.188-.192-10.547-5.511-23.022-11.822l-22.682-11.472z" style="stroke-width:.37814"/></svg>