<?xml version="1.0" encoding="UTF-8" standalone="no"?>
<svg
   width="512"
   height="512"
   fill-rule="evenodd"
   clip-rule="evenodd"
   image-rendering="optimizeQuality"
   shape-rendering="geometricPrecision"
   text-rendering="geometricPrecision"
   version="1.1"
   id="svg2"
   sodipodi:docname="discord-logo.svg"
   inkscape:version="1.3.2 (091e20e, 2023-11-25, custom)"
   xmlns:inkscape="http://www.inkscape.org/namespaces/inkscape"
   xmlns:sodipodi="http://sodipodi.sourceforge.net/DTD/sodipodi-0.dtd"
   xmlns="http://www.w3.org/2000/svg"
   xmlns:svg="http://www.w3.org/2000/svg">
  <defs
     id="defs2" />
  <sodipodi:namedview
     id="namedview2"
     pagecolor="#ffffff"
     bordercolor="#000000"
     borderopacity="0.25"
     inkscape:showpageshadow="2"
     inkscape:pageopacity="0.0"
     inkscape:pagecheckerboard="0"
     inkscape:deskcolor="#d1d1d1"
     inkscape:zoom="0.45254834"
     inkscape:cx="255.22135"
     inkscape:cy="352.44854"
     inkscape:window-width="1366"
     inkscape:window-height="705"
     inkscape:window-x="-8"
     inkscape:window-y="-8"
     inkscape:window-maximized="1"
     inkscape:current-layer="svg2" />
  <path
     fill="#5865f2"
     d="m 105,0 h 302 c 57.928,0.155 104.845,47.072 105,104.996 V 407 c -0.155,57.926 -47.072,104.844 -104.996,104.998 L 105,512 C 47.074,511.844 0.156,464.926 0.002,407.003 L 0,105 C 0.156,47.072 47.074,0.155 104.997,0 Z"
     id="path1" />
  <path
     fill="#ffffff"
     fill-rule="nonzero"
     d="m 368.89637,153.3815 a 269.506,269.506 0 0 0 -67.118,-20.637 186.88,186.88 0 0 0 -8.57,17.475 250.337,250.337 0 0 0 -37.247,-2.8 c -12.447,0 -24.955,0.946 -37.25,2.776 -2.511,-5.927 -5.427,-11.804 -8.592,-17.454 a 271.73,271.73 0 0 0 -67.133,20.681 c -42.479,62.841 -53.991003,124.112 -48.235003,184.513 a 270.622,270.622 0 0 0 82.308003,41.312 c 6.637,-8.959 12.582,-18.497 17.63,-28.423 a 173.808,173.808 0 0 1 -27.772,-13.253 c 2.328,-1.688 4.605,-3.427 6.805,-5.117 25.726,12.083 53.836,18.385 82.277,18.385 28.442,0 56.551,-6.302 82.279,-18.387 2.226,1.817 4.503,3.557 6.805,5.117 a 175.002,175.002 0 0 1 -27.823,13.289 197.847,197.847 0 0 0 17.631,28.4 269.513,269.513 0 0 0 82.363,-41.305 l -0.007,0.007 c 6.754,-70.045 -11.538,-130.753 -48.351,-184.579 z m -166.928,147.408 c -16.04,0 -29.292,-14.557 -29.292,-32.465 0,-17.908 12.791,-32.592 29.241,-32.592 16.45,0 29.599,14.684 29.318,32.592 -0.282,17.908 -12.919,32.465 -29.267,32.465 z m 108.062,0 c -16.066,0 -29.267,-14.557 -29.267,-32.465 0,-17.908 12.791,-32.592 29.267,-32.592 16.475,0 29.522,14.684 29.241,32.592 -0.281,17.908 -12.894,32.465 -29.241,32.465 z"
     id="path2" />
</svg>
