<?xml version="1.0" encoding="UTF-8" standalone="no"?>
<svg
   xml:space="preserve"
   width="512"
   height="512"
   fill-rule="evenodd"
   clip-rule="evenodd"
   image-rendering="optimizeQuality"
   shape-rendering="geometricPrecision"
   text-rendering="geometricPrecision"
   version="1.1"
   id="svg2"
   sodipodi:docname="x-logo.svg"
   inkscape:version="1.3.2 (091e20e, 2023-11-25, custom)"
   xmlns:inkscape="http://www.inkscape.org/namespaces/inkscape"
   xmlns:sodipodi="http://sodipodi.sourceforge.net/DTD/sodipodi-0.dtd"
   xmlns="http://www.w3.org/2000/svg"
   xmlns:svg="http://www.w3.org/2000/svg"><defs
     id="defs2" /><sodipodi:namedview
     id="namedview2"
     pagecolor="#ffffff"
     bordercolor="#000000"
     borderopacity="0.25"
     inkscape:showpageshadow="2"
     inkscape:pageopacity="0.0"
     inkscape:pagecheckerboard="0"
     inkscape:deskcolor="#d1d1d1"
     inkscape:zoom="0.45254834"
     inkscape:cx="339.19029"
     inkscape:cy="43.08932"
     inkscape:window-width="1366"
     inkscape:window-height="705"
     inkscape:window-x="-8"
     inkscape:window-y="-8"
     inkscape:window-maximized="1"
     inkscape:current-layer="svg2" /><path
     fill="#5865f2"
     d="m 105,0 h 302 c 57.928,0.155 104.845,47.072 105,104.996 V 407 c -0.155,57.926 -47.072,104.844 -104.996,104.998 L 105,512 C 47.074,511.844 0.156,464.926 0.002,407.003 L 0,105 C 0.156,47.072 47.074,0.155 104.997,0 Z"
     style="fill:#000000;fill-opacity:1"
     id="path1" /><path
     fill="#ffffff"
     fill-rule="nonzero"
     d="m 332,135.999 h 40.526 l -88.533,101.668 104.15,138.334 H 306.59 l -63.873,-83.893 -73.095,83.893 h -40.547 l 94.692,-108.735 -99.91,-131.267 h 83.62 l 57.735,76.69 z m -14.226,215.634 h 22.462 L 195.28,159.093 h -24.1 z"
     style="clip-rule:evenodd;fill-rule:evenodd;stroke-width:1.12454;image-rendering:optimizeQuality;shape-rendering:geometricPrecision;text-rendering:geometricPrecision"
     id="path2" /></svg>
