<svg xmlns="http://www.w3.org/2000/svg" xml:space="preserve" width="512" height="512" fill-rule="evenodd" clip-rule="evenodd" image-rendering="optimizeQuality" shape-rendering="geometricPrecision" text-rendering="geometricPrecision"><path fill="#5865f2" d="M105 0h302c57.928.155 104.845 47.072 105 104.996V407c-.155 57.926-47.072 104.844-104.996 104.998L105 512C47.074 511.844.156 464.926.002 407.003L0 105C.156 47.072 47.074.155 104.997 0Z" style="fill:#3ba0fe;fill-opacity:1"/><path d="M170.536 141.047c34.594 25.97 71.805 78.632 85.464 106.888 13.665-28.256 50.87-80.918 85.464-106.888 24.963-18.74 65.405-33.24 65.405 12.897 0 9.216-5.285 77.408-8.38 88.479-10.768 38.49-50.016 48.304-84.929 42.365 61.025 10.388 76.55 44.789 43.02 79.19-63.67 65.336-91.518-16.396-98.651-37.337-1.309-3.84-1.918-5.638-1.929-4.107-.011-1.525-.62.267-1.929 4.107-7.133 20.94-34.975 102.673-98.65 37.336-33.525-34.4-18.006-68.807 43.019-79.189-34.913 5.94-74.16-3.874-84.93-42.365-3.1-11.07-8.38-79.263-8.38-88.48 0-46.136 40.443-31.635 65.406-12.896z" style="opacity:1;fill:#fff;fill-rule:nonzero;stroke:none;stroke-width:5.68889;stroke-linecap:butt;stroke-linejoin:miter;stroke-miterlimit:10;stroke-dasharray:none"/></svg>