<svg xmlns="http://www.w3.org/2000/svg" xml:space="preserve" width="512" height="512" viewBox="0 0 135.467 135.467"><path d="M44.95 135.259c-5.949-1.008-10.715-5.219-12.603-11.135l-.63-1.977v-38.56c0-36.63.025-38.645.518-40.255 1.65-5.38 5.682-9.413 11.063-11.062 1.61-.494 3.625-.52 40.255-.52 36.629 0 38.644.026 40.254.52 5.381 1.649 9.414 5.681 11.063 11.062.493 1.61.52 3.626.52 40.255 0 36.63-.027 38.644-.52 40.254-1.626 5.307-5.525 9.254-10.921 11.06-1.476.493-3.473.522-39.549.562-20.897.024-38.65-.068-39.45-.204zm76.962-10.964c1.199-.612 1.776-1.204 2.426-2.488.415-.82.458-4.376.458-38.22s-.043-37.4-.458-38.22c-.65-1.285-1.227-1.877-2.426-2.488-1.013-.517-2.305-.535-38.362-.535-33.842 0-37.398.042-38.218.457-1.284.65-1.876 1.228-2.488 2.427-.517 1.013-.535 2.304-.535 38.359s.018 37.346.535 38.359c.599 1.173 1.186 1.756 2.432 2.414.76.402 4.666.449 38.217.459 36.125.01 37.406-.007 38.419-.524zM12.027 103.206C6.912 101.966 2.9 98.402.845 93.271l-.768-1.916V12.26l.768-1.916C2.427 6.394 5.12 3.381 8.57 1.7 12.323-.131 10.145-.05 52.69.035L91.32.112l1.915.767c5.198 2.083 8.712 6.063 9.936 11.253.26 1.102.43 3.188.433 5.282l.004 3.46H93.157l-.002-2.754c0-1.515-.142-3.26-.313-3.878-.4-1.44-2.065-3.105-3.505-3.505-1.587-.44-73.543-.44-75.13 0-1.44.4-3.105 2.065-3.504 3.505-.44 1.587-.44 73.543 0 75.13.4 1.44 2.065 3.105 3.505 3.504.618.172 2.426.313 4.019.314l2.895.002v10.452l-3.743-.024c-2.135-.013-4.435-.19-5.353-.414z" style="fill:#000;stroke-width:2.03618"/></svg>