<?xml version="1.0" encoding="UTF-8" standalone="no"?>
<svg
   xml:space="preserve"
   width="512"
   height="512"
   fill-rule="evenodd"
   clip-rule="evenodd"
   image-rendering="optimizeQuality"
   shape-rendering="geometricPrecision"
   text-rendering="geometricPrecision"
   version="1.1"
   id="svg2"
   sodipodi:docname="dexscreener-logo.svg"
   inkscape:version="1.3.2 (091e20e, 2023-11-25, custom)"
   xmlns:inkscape="http://www.inkscape.org/namespaces/inkscape"
   xmlns:sodipodi="http://sodipodi.sourceforge.net/DTD/sodipodi-0.dtd"
   xmlns="http://www.w3.org/2000/svg"
   xmlns:svg="http://www.w3.org/2000/svg"><defs
     id="defs2" /><sodipodi:namedview
     id="namedview2"
     pagecolor="#ffffff"
     bordercolor="#000000"
     borderopacity="0.25"
     inkscape:showpageshadow="2"
     inkscape:pageopacity="0.0"
     inkscape:pagecheckerboard="0"
     inkscape:deskcolor="#d1d1d1"
     inkscape:zoom="0.64"
     inkscape:cx="149.21875"
     inkscape:cy="192.96875"
     inkscape:window-width="1366"
     inkscape:window-height="705"
     inkscape:window-x="-8"
     inkscape:window-y="-8"
     inkscape:window-maximized="1"
     inkscape:current-layer="svg2" /><path
     fill="#5865f2"
     d="m 105,0 h 302 c 57.928,0.155 104.845,47.072 105,104.996 V 407 c -0.155,57.926 -47.072,104.844 -104.996,104.998 L 105,512 C 47.074,511.844 0.156,464.926 0.002,407.003 L 0,105 C 0.156,47.072 47.074,0.155 104.997,0 Z"
     style="fill:#121116;fill-opacity:1"
     id="path1" /><path
     d="m 235.701,435.765 a 30808.45,30808.45 0 0 1 -28.913,-46.984 c -4.825,-7.87 -8.965,-14.244 -9.2,-14.164 -0.236,0.08 -7.032,6.374 -15.102,13.987 -8.071,7.614 -16.178,15.221 -18.016,16.905 l -3.342,3.063 -1.257,-2.097 c -7.315,-12.208 -33.144,-53.643 -33.52,-53.772 -0.447,-0.154 -5.112,3.549 -37.355,29.646 -5.783,4.68 -10.843,8.626 -11.246,8.77 -0.403,0.144 -0.241,-0.489 0.36,-1.406 1.68,-2.565 8.982,-18.596 12.234,-26.862 8.839,-22.465 15.755,-49.823 18.8,-74.363 2.062,-16.61 2.41,-24.678 2.911,-67.281 0.48,-40.893 0.618,-44.642 1.885,-51.507 2.922,-15.833 8.63,-32.388 15.275,-44.297 l 2.264,-4.057 5.008,6.632 c 2.754,3.648 8.041,10.088 11.748,14.311 l 6.74,7.679 -2.682,6.164 c -4.258,9.785 -5.087,13.428 -5.067,22.26 0.015,6.642 0.263,8.467 1.764,13.014 5.184,15.705 19.347,27.297 38.073,31.161 3.191,0.66 7.613,1.202 9.826,1.207 2.793,0.006 4.02,0.254 4.011,0.813 -0.007,0.442 -0.283,2.675 -0.613,4.961 -0.33,2.286 -0.654,6.579 -0.72,9.54 -0.073,3.348 -0.427,5.691 -0.937,6.2 -0.45,0.45 -10.829,6.588 -23.064,13.64 -16.673,9.608 -22.05,12.997 -21.467,13.527 0.43,0.389 8.748,5.139 18.486,10.555 20.854,11.6 24.463,14.034 29.374,19.813 17.269,20.318 29.796,52.043 53.51,135.518 0.513,1.803 1.252,1.313 1.944,-1.288 3.922,-14.753 16.426,-56.02 21.134,-69.75 13.13,-38.289 27.252,-63.571 40.349,-72.233 1.86,-1.23 11.493,-6.782 21.408,-12.338 9.915,-5.555 18.228,-10.3 18.473,-10.543 0.245,-0.242 -4.245,-3.117 -9.98,-6.387 a 4042.496,4042.496 0 0 1 -22.98,-13.24 l -12.554,-7.295 -0.397,-7.04 c -0.218,-3.873 -0.608,-8.663 -0.866,-10.645 l -0.47,-3.603 6.017,-0.382 c 19.12,-1.212 35.86,-11.32 43.337,-26.167 3.263,-6.48 4.414,-11.532 4.41,-19.36 -0.005,-7.992 -1.455,-13.995 -5.468,-22.631 l -2.632,-5.665 5.247,-5.543 c 2.886,-3.049 8.043,-9.213 11.46,-13.698 3.418,-4.486 6.45,-8.424 6.737,-8.754 0.708,-0.809 8.9,16.353 11.775,24.668 2.821,8.158 4.466,14.498 6.233,24.034 1.246,6.72 1.386,10.653 1.865,52.335 0.387,33.775 0.777,47.56 1.554,55.013 4.093,39.262 12.977,71.822 28.451,104.28 2.264,4.75 4.043,8.706 3.953,8.793 -0.09,0.087 -3.095,-2.205 -6.676,-5.094 -35.729,-28.818 -41.576,-33.39 -42.049,-32.876 -0.296,0.32 -4.29,6.668 -8.878,14.104 l -16.967,27.509 -8.626,13.988 -2.265,-2.12 c -1.246,-1.166 -9.453,-8.878 -18.238,-17.137 -8.786,-8.26 -16.197,-14.76 -16.47,-14.444 -0.274,0.316 -7.703,12.308 -16.51,26.65 a 71809.801,71809.801 0 0 1 -32.15,52.333 c -4.947,8.044 -9.175,14.625 -9.396,14.625 -0.22,0 -9.465,-14.703 -20.543,-32.675 z m 15.247,-88.205 c -5.464,-16.704 -8.913,-25.542 -13.633,-34.928 -8.333,-16.575 -19.285,-29.4 -32.228,-37.743 -2.131,-1.373 -3.975,-2.77 -4.097,-3.105 -0.122,-0.334 4.085,-3.106 9.348,-6.16 12.74,-7.39 12.41,-6.862 12.41,-19.942 0,-10.993 1.134,-20.052 3.323,-26.548 4.078,-12.108 11.899,-21.767 21.199,-26.184 4.817,-2.288 12.891,-2.386 17.64,-0.214 9.03,4.129 17.657,14.64 21.254,25.895 2.508,7.845 3.06,11.858 3.502,25.432 0.367,11.269 0.572,13.078 1.645,14.486 0.674,0.886 5.28,3.928 10.237,6.76 4.956,2.833 9.407,5.441 9.892,5.795 0.674,0.493 -0.503,1.55 -5.018,4.507 -7.102,4.652 -15.735,12.901 -21.01,20.078 -9.115,12.4 -14.905,24.89 -23.144,49.925 -3.114,9.465 -5.81,17.215 -5.99,17.223 -0.18,0.007 -2.58,-6.867 -5.33,-15.277 z m -59.37,-147.614 c -17.145,-3.441 -25.575,-17.231 -19.37,-31.689 l 1.033,-2.409 5.991,4.445 c 8.904,6.605 20.074,13.743 30.812,19.69 l 9.551,5.29 -3.735,1.676 c -7.316,3.283 -16.939,4.47 -24.282,2.997 z m 112.027,-0.612 c -4.37,-1.162 -10.623,-3.649 -10.623,-4.225 0,-0.156 2.1,-1.33 4.668,-2.607 2.567,-1.278 9.014,-4.91 14.325,-8.072 8.506,-5.063 12.822,-7.981 24.414,-16.506 l 2.853,-2.098 1.423,3.707 c 1.926,5.018 1.993,12.217 0.151,16.263 -0.725,1.593 -2.336,4.056 -3.579,5.472 -6.823,7.776 -21.494,11.295 -33.632,8.066 z m -81.128,-27.755 c -40.355,-21.992 -82.032,-61.482 -98.463,-93.296 -3.35,-6.486 -6.726,-15.019 -5.352,-13.529 0.49,0.531 2.42,2.777 4.292,4.99 6.524,7.717 18.556,15.416 26.402,16.895 l 3.49,0.658 4.88,-4.709 c 33.765,-32.585 83.358,-46.061 130.588,-35.487 24.574,5.502 47.904,17.872 65.983,34.985 l 5.425,5.135 4.37,-0.914 c 7.954,-1.664 16.538,-7.338 25.35,-16.757 l 5.199,-5.557 -1.936,5.049 c -2.65,6.91 -6.895,14.654 -12.652,23.075 -17.59,25.732 -48.529,54.284 -79.345,73.223 -7.793,4.79 -18.798,10.798 -19.778,10.798 -0.368,0 -2.352,-1.014 -4.41,-2.253 -13.061,-7.865 -27.412,-7.865 -40.473,0 -2.058,1.24 -4.07,2.253 -4.473,2.253 -0.402,0 -4.496,-2.051 -9.097,-4.559 z"
     style="fill:#ffffff;stroke-width:0.925516"
     id="path2" /></svg>
