<svg xmlns="http://www.w3.org/2000/svg" xml:space="preserve" width="670" height="186" viewBox="0 0 177.271 49.212"><path d="M23.813 0h129.645a23.76 23.76 0 0 1 23.813 23.812V25.4a23.76 23.76 0 0 1-23.813 23.813H23.813A23.76 23.76 0 0 1 0 25.4v-1.588A23.76 23.76 0 0 1 23.813 0Z" style="fill:#5765f2;stroke-width:1.32292;stroke-linecap:round;stroke-linejoin:bevel;paint-order:markers fill stroke"/><path fill="#fff" d="M45.936 13.6a28.906 28.906 0 0 0-7.199-2.214 20.044 20.044 0 0 0-.919 1.875 26.85 26.85 0 0 0-3.995-.3c-1.335 0-2.676.1-3.995.297a19.096 19.096 0 0 0-.921-1.872 29.145 29.145 0 0 0-7.2 2.218c-4.557 6.74-5.792 13.312-5.174 19.79a29.026 29.026 0 0 0 8.828 4.431 21.54 21.54 0 0 0 1.89-3.048 18.642 18.642 0 0 1-2.978-1.422c.25-.18.494-.367.73-.549a20.768 20.768 0 0 0 8.824 1.972c3.051 0 6.066-.676 8.825-1.972.24.195.483.382.73.55a18.77 18.77 0 0 1-2.984 1.424 21.22 21.22 0 0 0 1.891 3.046 28.907 28.907 0 0 0 8.834-4.43v.001c.724-7.513-1.238-14.024-5.187-19.797ZM28.032 29.41c-1.72 0-3.141-1.561-3.141-3.482 0-1.92 1.371-3.496 3.136-3.496 1.764 0 3.174 1.575 3.144 3.496-.03 1.92-1.385 3.482-3.139 3.482zm11.59 0c-1.723 0-3.138-1.561-3.138-3.482 0-1.92 1.371-3.496 3.139-3.496 1.767 0 3.166 1.575 3.136 3.496-.03 1.92-1.383 3.482-3.136 3.482z" style="clip-rule:evenodd;fill-rule:evenodd;stroke-width:.107256;image-rendering:optimizeQuality;shape-rendering:geometricPrecision;text-rendering:geometricPrecision"/><path d="M71.83 27.856q0 1.14-.36 2.083-.36.943-1.054 1.613-.695.67-1.724 1.041-1.03.36-2.394.36-1.004 0-1.935-.236-.93-.235-1.624-.595V29.17q.31.26.719.484.422.223.893.397.471.161.967.26.496.087.98.087.41 0 .844-.149.446-.149.793-.496.348-.347.57-.905.224-.57.224-1.402v-8.433h-5.866v-2.518h8.967zm16.247-3.324q0 2.207-.521 3.807-.509 1.6-1.414 2.63-.893 1.029-2.108 1.525-1.204.496-2.58.496-3.2 0-4.812-2.12-1.613-2.134-1.613-6.19 0-2.207.509-3.807.52-1.6 1.414-2.63.905-1.029 2.108-1.525 1.216-.496 2.592-.496 3.2 0 4.812 2.121 1.613 2.12 1.613 6.189zm-3.225.149q0-2.878-.769-4.292-.769-1.413-2.53-1.413-.88 0-1.5.372-.62.36-1.03 1.066-.397.707-.583 1.749-.186 1.03-.186 2.369 0 2.877.769 4.291.781 1.414 2.53 1.414.88 0 1.5-.36.633-.372 1.03-1.079t.583-1.736q.186-1.042.186-2.381zm5.544-5.693v-2.493h10.244v2.493h-3.572v11.2h3.572v2.517H90.396v-2.518h3.572V18.988Zm21.282 13.717-4.34-9.674-.893-2.083V32.705h-2.779v-16.21h3.746l4.428 9.736.78 1.898V16.495h2.779v16.21zm31.639-5.966q0 1.55-.422 2.729-.41 1.166-1.19 1.947-.77.781-1.886 1.178-1.116.397-2.505.397-1.563 0-2.679-.397-1.116-.397-1.81-1.14-.695-.745-1.005-1.811-.31-1.067-.31-2.394V16.495h3.05v10.567q0 .818.137 1.451.149.633.496 1.079.36.434.893.657.533.224 1.34.224.756 0 1.277-.186.52-.199.868-.62.347-.435.521-1.104.174-.67.174-1.625V16.495h3.05zm13.73 1.067q0 1.327-.497 2.307-.484.98-1.364 1.625-.88.632-2.096.942-1.216.31-2.654.31-1.278 0-2.468-.149-1.191-.148-2.357-.496v-3.013q.57.198 1.19.372.62.173 1.241.31.633.124 1.253.198.62.075 1.203.075.868 0 1.476-.15.607-.148.992-.409.384-.26.558-.62.173-.36.173-.793 0-.596-.347-.993-.335-.409-.893-.719t-1.277-.558q-.707-.248-1.451-.533-.732-.286-1.451-.645-.707-.36-1.265-.893-.558-.534-.906-1.265-.335-.744-.335-1.786 0-.955.348-1.811.347-.856 1.091-1.488.744-.645 1.91-1.017 1.166-.385 2.815-.385.484 0 1.005.05.533.037 1.042.111.52.063.992.162.484.087.88.186v2.79q-.396-.149-.868-.273-.47-.124-.98-.21-.496-.1-1.004-.15-.509-.049-.967-.049-.807 0-1.365.137-.558.124-.917.36-.36.222-.521.557-.162.335-.162.744 0 .509.335.881.348.36.906.657.57.286 1.277.546.72.248 1.464.546.756.285 1.463.657.72.372 1.277.905.571.534.906 1.266.347.719.347 1.711z" aria-label="JOIN US" style="font-weight:700;font-size:25.4px;font-family:Consolas;-inkscape-font-specification:&quot;Consolas Bold&quot;;fill:#fff;stroke-width:10.5834;stroke-linecap:round;stroke-linejoin:bevel;paint-order:markers fill stroke"/></svg>