<svg xmlns="http://www.w3.org/2000/svg" xml:space="preserve" width="512" height="512" viewBox="0 0 135.467 135.467"><path d="M25.343 135.057c-10.947-1.705-20.202-9.58-23.768-20.224-1.166-3.479-1.572-6.76-1.573-12.722-.002-6.174.226-7.232 1.977-9.18 2.996-3.332 8.003-3.4 11-.148 1.837 1.992 1.92 2.366 2.113 9.479.152 5.574.243 6.541.744 7.916 1.623 4.455 5.139 7.952 9.514 9.464l1.77.611h81.227l1.77-.611c4.378-1.513 7.904-5.022 9.51-9.464.494-1.367.589-2.375.745-7.916.2-7.112.285-7.493 2.116-9.48a7.434 7.434 0 0 1 8.423-1.772c1.822.793 3.62 2.775 4.157 4.579.543 1.83.546 10.701.005 14.294-1.957 12.983-12.208 23.233-25.19 25.19-3.69.556-80.96.541-84.54-.016zm39.877-30.141c-.582-.219-1.116-.4-1.186-.401-.408-.013-32.682-32.593-33.16-33.474-.82-1.514-.822-5.094-.003-6.615 1.35-2.51 3.886-4.085 6.587-4.095 3.365-.012 3.254-.095 13.35 9.952 5.026 5 9.223 9.092 9.327 9.092.105 0 .191-16.58.193-36.843l.002-36.843.621-1.333C62.116 1.854 65.003 0 67.734 0c2.716 0 5.459 1.75 6.724 4.288l.684 1.372v74.095l9.326-9.282C94.775 60.216 94.638 60.32 98.01 60.331c2.701.01 5.236 1.586 6.587 4.095.768 1.427.816 5.09.085 6.483-.692 1.32-32.329 32.976-33.64 33.661-1.382.723-4.349.899-5.821.346z" style="fill:#000"/></svg>