<svg xmlns="http://www.w3.org/2000/svg" xml:space="preserve" width="512" height="512" viewBox="0 0 135.467 135.467"><path d="M18.45 135.048c-7.524-1.36-14.284-7.014-16.983-14.204C-.035 116.842 0 117.938.003 75.041c.004-37.435.03-39.577.496-41.84 1.923-9.317 9.265-16.38 18.551-17.844 1.04-.164 8.28-.273 18.313-.274 15.92-.002 16.65.02 18 .525 2.86 1.07 4.686 3.802 4.686 7.014 0 3.062-1.577 5.555-4.29 6.781l-1.387.627-17.066.133-17.065.132-1.235.726c-.679.399-1.655 1.216-2.168 1.816-1.879 2.195-1.757-.753-1.757 42.437 0 44.194-.194 40.454 2.232 42.88 2.426 2.426-1.314 2.232 42.88 2.232 43.447 0 40.272.14 42.561-1.875.65-.573 1.461-1.606 1.8-2.295l.618-1.254.132-16.934.133-16.933.627-1.387c1.225-2.71 3.717-4.288 6.781-4.293 2.32-.004 4.048.744 5.586 2.42 2.045 2.227 1.99 1.613 1.895 21.423l-.084 17.556-.737 2.371c-2.598 8.357-9.149 14.26-17.603 15.863-1.961.371-6.708.416-41.805.395-32.76-.02-39.946-.088-41.647-.395zm32.084-45.072c-1.834-.558-3.732-2.187-4.642-3.986-.258-.51-.523-1.764-.59-2.789-.24-3.707-2.714-.952 32.71-36.425l31.631-31.673-14.406-.077-14.407-.077-1.323-.704c-2.753-1.465-4.087-3.65-4.092-6.704-.004-2.38.761-4.099 2.51-5.638C80.207-.107 78.936-.023 105.99.059l24.052.073 1.455.821c.8.452 1.84 1.32 2.309 1.93 1.71 2.224 1.66 1.402 1.66 27.28 0 26.317.083 25.123-1.907 27.384-1.535 1.743-3.257 2.51-5.634 2.505-3.054-.005-5.239-1.339-6.704-4.092l-.704-1.323-.077-14.408-.077-14.407-31.54 31.526c-34.766 34.75-32.727 32.892-36.04 32.85-.873-.011-1.885-.111-2.25-.222Z" style="fill:#000"/></svg>