<?xml version="1.0" encoding="UTF-8" standalone="no"?>
<svg
   xml:space="preserve"
   width="512"
   height="512"
   fill-rule="evenodd"
   clip-rule="evenodd"
   image-rendering="optimizeQuality"
   shape-rendering="geometricPrecision"
   text-rendering="geometricPrecision"
   version="1.1"
   id="svg5"
   sodipodi:docname="quickswap-logo.svg"
   inkscape:version="1.3.2 (091e20e, 2023-11-25, custom)"
   xmlns:inkscape="http://www.inkscape.org/namespaces/inkscape"
   xmlns:sodipodi="http://sodipodi.sourceforge.net/DTD/sodipodi-0.dtd"
   xmlns="http://www.w3.org/2000/svg"
   xmlns:svg="http://www.w3.org/2000/svg"><defs
     id="defs5" /><sodipodi:namedview
     id="namedview5"
     pagecolor="#ffffff"
     bordercolor="#000000"
     borderopacity="0.25"
     inkscape:showpageshadow="2"
     inkscape:pageopacity="0.0"
     inkscape:pagecheckerboard="0"
     inkscape:deskcolor="#d1d1d1"
     inkscape:zoom="0.22627417"
     inkscape:cx="386.69902"
     inkscape:cy="-59.662135"
     inkscape:window-width="1366"
     inkscape:window-height="705"
     inkscape:window-x="-8"
     inkscape:window-y="-8"
     inkscape:window-maximized="1"
     inkscape:current-layer="svg5" /><path
     fill="#5865f2"
     d="m 105,0 h 302 c 57.928,0.155 104.845,47.072 105,104.996 V 407 c -0.155,57.926 -47.072,104.844 -104.996,104.998 L 105,512 C 47.074,511.844 0.156,464.926 0.002,407.003 L 0,105 C 0.156,47.072 47.074,0.155 104.997,0 Z"
     style="fill:#ffffff;fill-opacity:1"
     id="path1" /><path
     d="m 250.898,480.654 a 11.735,11.735 0 0 1 1.741,0 c 0.479,0.043 0.087,0.078 -0.87,0.078 -0.958,0 -1.35,-0.035 -0.87,-0.078 z m 11.782,0 a 13.31,13.31 0 0 1 1.844,0 c 0.475,0.043 0.034,0.078 -0.98,0.077 -1.013,0 -1.402,-0.036 -0.864,-0.078 z m -16.797,-0.202 a 3.65,3.65 0 0 1 1.024,0.003 c 0.252,0.049 -0.003,0.087 -0.566,0.086 -0.563,-0.002 -0.769,-0.042 -0.458,-0.089 z m 22.733,0 a 3.65,3.65 0 0 1 1.024,0.003 c 0.252,0.049 -0.003,0.087 -0.566,0.086 -0.563,-0.002 -0.769,-0.042 -0.458,-0.089 z m -26.217,-0.199 c 0.197,-0.051 0.52,-0.051 0.717,0 0.197,0.052 0.036,0.094 -0.359,0.094 -0.394,0 -0.555,-0.042 -0.358,-0.094 z m 29.8,-0.004 c 0.256,-0.049 0.624,-0.047 0.82,0.004 0.196,0.051 -0.013,0.091 -0.463,0.09 -0.45,-0.003 -0.61,-0.045 -0.356,-0.094 z m -32.667,-0.201 c 0.197,-0.052 0.52,-0.052 0.717,0 0.197,0.051 0.035,0.094 -0.359,0.094 -0.394,0 -0.555,-0.042 -0.358,-0.094 z m 35.639,0 c 0.2,-0.053 0.476,-0.05 0.614,0.007 0.139,0.056 -0.024,0.099 -0.362,0.095 -0.338,-0.004 -0.451,-0.05 -0.252,-0.102 z m -37.888,-0.206 c 0.2,-0.051 0.476,-0.048 0.614,0.008 0.139,0.057 -0.024,0.099 -0.362,0.095 -0.338,-0.004 -0.451,-0.05 -0.252,-0.102 z m 40.346,0 c 0.199,-0.051 0.475,-0.048 0.614,0.008 0.139,0.057 -0.024,0.099 -0.362,0.095 -0.338,-0.004 -0.452,-0.05 -0.252,-0.102 z m -42.5,-0.198 a 0.79,0.79 0 0 1 0.512,0 c 0.14,0.057 0.025,0.103 -0.256,0.103 -0.282,0 -0.397,-0.046 -0.256,-0.103 z m 44.646,0 a 0.79,0.79 0 0 1 0.512,0 c 0.14,0.057 0.026,0.103 -0.256,0.103 -0.282,0 -0.397,-0.046 -0.256,-0.103 z m -46.694,-0.205 a 0.79,0.79 0 0 1 0.512,0 c 0.14,0.057 0.025,0.103 -0.256,0.103 -0.282,0 -0.397,-0.046 -0.256,-0.103 z m 48.742,0 a 0.79,0.79 0 0 1 0.512,0 c 0.14,0.057 0.026,0.103 -0.256,0.103 -0.282,0 -0.397,-0.046 -0.256,-0.103 z m -50.586,-0.205 a 0.79,0.79 0 0 1 0.512,0 c 0.141,0.057 0.026,0.104 -0.256,0.104 -0.281,0 -0.396,-0.047 -0.256,-0.104 z m 52.43,0 a 0.79,0.79 0 0 1 0.511,0 c 0.141,0.057 0.026,0.104 -0.256,0.104 -0.281,0 -0.397,-0.047 -0.256,-0.104 z m -54.068,-0.205 a 0.79,0.79 0 0 1 0.512,0 c 0.14,0.057 0.026,0.104 -0.256,0.104 -0.282,0 -0.397,-0.047 -0.256,-0.104 z m 55.706,0 a 0.79,0.79 0 0 1 0.512,0 c 0.14,0.057 0.025,0.104 -0.256,0.104 -0.282,0 -0.397,-0.047 -0.256,-0.104 z m -57.344,-0.204 a 0.79,0.79 0 0 1 0.512,0 c 0.14,0.056 0.025,0.103 -0.256,0.103 -0.282,0 -0.397,-0.047 -0.256,-0.103 z m 58.982,0 a 0.79,0.79 0 0 1 0.512,0 c 0.14,0.056 0.026,0.103 -0.256,0.103 -0.282,0 -0.397,-0.047 -0.256,-0.103 z m -60.403,-0.21 c 0.148,-0.059 0.324,-0.051 0.392,0.017 0.068,0.068 -0.053,0.116 -0.268,0.107 -0.239,-0.01 -0.288,-0.058 -0.124,-0.123 z m 62.054,0 c 0.148,-0.059 0.325,-0.051 0.393,0.017 0.068,0.068 -0.053,0.116 -0.269,0.107 -0.239,-0.01 -0.287,-0.058 -0.124,-0.123 z m -63.488,-0.204 c 0.148,-0.06 0.325,-0.052 0.393,0.016 0.068,0.068 -0.053,0.116 -0.269,0.108 -0.239,-0.01 -0.287,-0.059 -0.124,-0.124 z m 64.922,0 c 0.148,-0.06 0.324,-0.052 0.392,0.016 0.068,0.068 -0.053,0.116 -0.268,0.108 -0.239,-0.01 -0.288,-0.059 -0.124,-0.124 z m -66.355,-0.205 c 0.147,-0.06 0.324,-0.052 0.392,0.016 0.068,0.068 -0.053,0.117 -0.269,0.108 -0.238,-0.01 -0.287,-0.059 -0.123,-0.124 z m 67.788,0 c 0.148,-0.06 0.325,-0.052 0.393,0.016 0.068,0.068 -0.053,0.117 -0.269,0.108 -0.238,-0.01 -0.287,-0.059 -0.124,-0.124 z m -69.017,-0.205 c 0.148,-0.059 0.324,-0.052 0.392,0.016 0.068,0.068 -0.053,0.117 -0.268,0.108 -0.239,-0.01 -0.288,-0.058 -0.124,-0.124 z m 70.246,0 c 0.148,-0.059 0.325,-0.052 0.393,0.016 0.068,0.068 -0.053,0.117 -0.269,0.108 -0.239,-0.01 -0.287,-0.058 -0.124,-0.124 z m 2.663,-0.41 c 0.147,-0.059 0.324,-0.051 0.392,0.017 0.068,0.068 -0.053,0.116 -0.269,0.107 -0.238,-0.01 -0.287,-0.058 -0.123,-0.123 z m -76.596,-0.204 c 0.148,-0.06 0.325,-0.052 0.393,0.016 0.068,0.068 -0.053,0.116 -0.269,0.108 -0.238,-0.01 -0.287,-0.059 -0.124,-0.124 z m -1.228,-0.205 c 0.147,-0.06 0.324,-0.052 0.392,0.016 0.068,0.068 -0.053,0.117 -0.269,0.108 -0.238,-0.01 -0.287,-0.059 -0.123,-0.124 z m 82.33,-0.41 c 0.147,-0.059 0.324,-0.051 0.392,0.017 0.068,0.068 -0.053,0.116 -0.269,0.107 -0.239,-0.01 -0.287,-0.058 -0.124,-0.124 z m 65.369,-28.2 c 0,-0.042 0.161,-0.203 0.358,-0.358 0.325,-0.255 0.332,-0.247 0.078,0.078 -0.268,0.34 -0.436,0.45 -0.436,0.28 z m 6.144,-4.915 c 0,-0.042 0.161,-0.203 0.358,-0.358 0.325,-0.255 0.332,-0.247 0.078,0.077 -0.268,0.341 -0.436,0.45 -0.436,0.281 z m 1.229,-1.024 c 0,-0.042 0.16,-0.203 0.358,-0.358 0.325,-0.255 0.332,-0.247 0.077,0.077 -0.267,0.341 -0.435,0.45 -0.435,0.281 z m 2.457,-2.277 c 0.382,-0.395 0.741,-0.717 0.797,-0.717 0.057,0 -0.21,0.322 -0.592,0.717 -0.382,0.394 -0.74,0.716 -0.797,0.716 -0.056,0 0.21,-0.322 0.592,-0.716 z m 4.506,-5.12 c 0.382,-0.395 0.74,-0.717 0.797,-0.717 0.056,0 -0.21,0.322 -0.592,0.717 -0.382,0.394 -0.741,0.716 -0.797,0.716 -0.057,0 0.21,-0.322 0.592,-0.716 z m 1.638,-1.6 c 0,-0.036 0.3,-0.335 0.666,-0.666 l 0.665,-0.602 -0.601,0.666 c -0.56,0.62 -0.73,0.76 -0.73,0.601 z m -259.303,-0.704 c -0.254,-0.325 -0.247,-0.333 0.078,-0.078 0.34,0.268 0.45,0.436 0.28,0.436 -0.042,0 -0.203,-0.161 -0.358,-0.358 z m -1.324,-1.127 -0.39,-0.46 0.46,0.39 c 0.433,0.366 0.554,0.53 0.39,0.53 -0.038,0 -0.246,-0.206 -0.46,-0.46 z m 262.675,-0.436 c 0,-0.042 0.162,-0.203 0.359,-0.358 0.324,-0.255 0.332,-0.247 0.077,0.077 -0.268,0.341 -0.436,0.45 -0.436,0.281 z m -265.157,-1.77 c -0.474,-0.448 -0.792,-0.815 -0.707,-0.815 0.086,0 0.515,0.369 0.955,0.82 1.03,1.054 0.871,1.05 -0.248,-0.005 z m -2.638,-1.89 -0.39,-0.46 0.46,0.39 c 0.433,0.366 0.554,0.53 0.39,0.53 -0.038,0 -0.246,-0.206 -0.46,-0.46 z m -1.229,-1.229 -0.39,-0.46 0.46,0.39 c 0.434,0.366 0.555,0.531 0.39,0.531 -0.038,0 -0.245,-0.207 -0.46,-0.46 z m -1.638,-1.638 -0.39,-0.46 0.46,0.39 c 0.433,0.366 0.554,0.53 0.39,0.53 -0.039,0 -0.246,-0.207 -0.46,-0.46 z m -2.352,-2.15 -0.496,-0.564 0.563,0.497 c 0.31,0.273 0.563,0.526 0.563,0.563 0,0.16 -0.166,0.03 -0.63,-0.496 z m -5.82,-5.581 c -1.688,-1.69 -3.022,-3.072 -2.965,-3.072 0.056,0 1.482,1.382 3.169,3.072 1.687,1.69 3.02,3.072 2.964,3.072 -0.056,0 -1.482,-1.383 -3.169,-3.072 z m -5.748,-5.99 -0.602,-0.666 0.666,0.601 c 0.366,0.331 0.665,0.63 0.665,0.666 0,0.158 -0.169,0.019 -0.73,-0.602 z m -2.055,-2.253 -0.39,-0.461 0.46,0.39 c 0.434,0.367 0.555,0.531 0.391,0.531 -0.039,0 -0.246,-0.207 -0.46,-0.46 z m -1.638,-1.844 -0.39,-0.46 0.46,0.39 c 0.433,0.366 0.554,0.531 0.39,0.531 -0.038,0 -0.246,-0.207 -0.46,-0.46 z m -1.338,-1.536 c -0.255,-0.324 -0.248,-0.332 0.077,-0.077 0.341,0.268 0.45,0.436 0.281,0.436 -0.042,0 -0.203,-0.162 -0.358,-0.359 z m -2.253,-2.662 c -0.255,-0.325 -0.247,-0.332 0.077,-0.077 0.342,0.267 0.45,0.435 0.282,0.435 -0.043,0 -0.204,-0.16 -0.359,-0.358 z m 84.097,-24.565 c -32.267,-1.712 -63.393,-16.196 -88.115,-41.004 -8.023,-8.051 -14.574,-16.145 -22.724,-28.076 -1.222,-1.789 -3.715,-5.884 -6.047,-9.933 -8.314,-14.434 -14.698,-27.997 -14.698,-31.223 0,-0.473 0.133,-1.936 0.297,-3.25 0.164,-1.315 0.444,-4.787 0.624,-7.715 1.232,-20.115 4.749,-38.177 10.965,-56.317 10.473,-30.56 27.336,-57.856 49.962,-80.871 35.213,-35.82 81.35,-57.977 130.75,-62.794 2.262,-0.22 5.633,-0.52 7.491,-0.664 4.555,-0.354 23.269,-0.352 27.955,0.004 19.392,1.47 36.3,4.83 54.425,10.815 l 4.658,1.538 -0.293,0.567 c -0.161,0.311 -0.847,1.313 -1.524,2.226 -5.868,7.914 -22.556,23.179 -38.072,34.824 -5.472,4.107 -11.03,7.99 -11.172,7.804 -0.035,-0.046 -0.23,-1.004 -0.433,-2.13 -0.527,-2.91 -1.83,-8.127 -2.48,-9.934 -0.648,-1.797 -1.281,-3.115 -4.25,-8.845 l -2.194,-4.238 -0.412,0.809 c -0.227,0.444 -1.367,2.075 -2.533,3.623 -6.943,9.213 -16.437,18.347 -24.994,24.044 -4.75,3.162 -8.177,4.742 -21.823,10.066 -9.202,3.589 -13.54,5.457 -18.465,7.952 -12.18,6.168 -18.617,12.82 -20.049,20.717 -0.3,1.655 -0.294,5.398 0.012,7.425 1.07,7.088 4.784,10.786 13.741,13.68 l 2.699,0.872 -1.41,0.34 c -6.094,1.464 -10.297,0.782 -14.82,-2.405 -0.882,-0.622 -1.764,-1.13 -1.96,-1.13 -0.195,0 -1.702,1.313 -3.348,2.918 -7.125,6.952 -14.68,12.593 -21.211,15.841 -5.197,2.584 -9.249,3.609 -12.562,3.177 -3.275,-0.426 -5.396,-1.288 -6.73,-2.736 -1.281,-1.39 -1.752,-2.854 -1.865,-5.805 -0.103,-2.686 0.162,-4.882 1.105,-9.157 0.293,-1.329 0.491,-2.458 0.44,-2.509 -0.2,-0.2 -2.11,0.536 -3.103,1.198 -0.577,0.386 -1.695,1.296 -2.484,2.023 -0.788,0.727 -2.397,2.048 -3.576,2.936 -11.57,8.718 -19.35,19.676 -23.35,32.893 -1.025,3.386 -2.125,8.743 -2.604,12.673 -0.513,4.218 -0.51,14.732 0.005,19.456 0.66,6.034 2.064,13.707 2.683,14.65 0.577,0.882 0.723,0.803 4.705,-2.515 3.097,-2.582 6.86,-5.433 6.587,-4.991 -0.067,0.11 0.061,0.258 0.286,0.33 0.225,0.07 1.276,1.206 2.336,2.523 a 56.258,56.258 0 0 0 24.909,17.668 c 0.732,0.26 1.39,0.558 1.462,0.663 0.072,0.106 0.233,0.128 0.358,0.05 0.126,-0.077 0.228,-0.032 0.228,0.099 0,0.131 0.138,0.186 0.307,0.12 0.17,-0.064 0.307,-0.018 0.307,0.103 0,0.121 0.139,0.167 0.308,0.103 0.169,-0.065 0.307,-0.023 0.307,0.094 0,0.123 0.182,0.154 0.435,0.074 0.32,-0.102 0.393,-0.07 0.275,0.12 -0.116,0.19 -0.04,0.228 0.282,0.144 0.243,-0.063 0.441,-0.025 0.441,0.084 0,0.11 0.195,0.138 0.436,0.062 0.32,-0.102 0.393,-0.07 0.275,0.12 -0.117,0.189 -0.04,0.228 0.281,0.144 0.243,-0.064 0.442,-0.026 0.442,0.084 0,0.11 0.195,0.137 0.435,0.061 0.319,-0.101 0.393,-0.07 0.277,0.119 -0.12,0.192 -0.02,0.221 0.401,0.116 0.406,-0.102 0.518,-0.074 0.41,0.102 -0.11,0.176 0.004,0.204 0.41,0.102 0.405,-0.101 0.518,-0.073 0.409,0.103 -0.106,0.172 0.008,0.212 0.392,0.139 0.299,-0.057 0.543,-0.015 0.543,0.095 0,0.11 0.23,0.14 0.512,0.07 0.319,-0.08 0.512,-0.042 0.512,0.102 0,0.127 0.118,0.185 0.263,0.13 0.145,-0.056 0.905,0.02 1.69,0.168 0.784,0.148 3.27,0.415 5.522,0.593 2.253,0.179 4.408,0.376 4.79,0.44 l 0.693,0.114 -0.757,-1.033 c -0.986,-1.343 -3.934,-8.043 -3.703,-8.416 0.06,-0.098 0.01,-0.24 -0.112,-0.315 -0.122,-0.076 -0.168,-0.278 -0.102,-0.45 0.066,-0.172 0.012,-0.442 -0.12,-0.6 -0.354,-0.428 -0.074,-3.876 0.439,-5.399 1.214,-3.603 4.455,-6.357 10.112,-8.591 3.631,-1.435 10.96,-3.292 17.008,-4.31 6.337,-1.066 9.861,-1.32 18.344,-1.32 12.35,0 17.828,0.686 30.357,3.796 14.806,3.675 24.034,6.99 30.776,11.052 3.269,1.97 9.241,9.142 12.608,15.14 2.856,5.09 4.915,11.103 5.824,17.005 0.47,3.046 0.623,8.794 0.315,11.782 -0.657,6.376 -2.255,11.714 -5.362,17.914 -5.223,10.42 -13.59,20.187 -24.035,28.053 -16.783,12.64 -38.525,20.907 -61.133,23.244 -6.161,0.637 -15.367,0.889 -21.196,0.58 z m 234,-6.53 c 0.01,-0.24 0.058,-0.288 0.124,-0.124 0.059,0.148 0.051,0.324 -0.017,0.392 -0.068,0.068 -0.116,-0.053 -0.107,-0.269 z m 0.205,-1.434 c 0.01,-0.239 0.058,-0.287 0.123,-0.124 0.06,0.148 0.052,0.325 -0.016,0.393 -0.068,0.068 -0.116,-0.053 -0.107,-0.27 z m 0.204,-1.639 c 0.01,-0.238 0.059,-0.287 0.124,-0.123 0.06,0.148 0.052,0.324 -0.016,0.392 -0.068,0.068 -0.116,-0.053 -0.108,-0.269 z m 0.205,-1.843 c 0.01,-0.238 0.059,-0.287 0.124,-0.123 0.06,0.147 0.052,0.324 -0.016,0.392 -0.068,0.068 -0.117,-0.053 -0.108,-0.269 z m 0.221,-2.133 c 0,-0.282 0.047,-0.397 0.103,-0.256 a 0.79,0.79 0 0 1 0,0.512 c -0.056,0.14 -0.103,0.026 -0.103,-0.256 z m 0.213,-2.56 c 0.004,-0.338 0.05,-0.451 0.102,-0.252 0.051,0.2 0.048,0.476 -0.008,0.614 -0.057,0.139 -0.099,-0.024 -0.095,-0.362 z m 0.228,-4.096 c 0,-0.676 0.04,-0.928 0.085,-0.56 0.046,0.369 0.045,0.921 -0.002,1.23 -0.047,0.307 -0.084,0.006 -0.083,-0.67 z m 0,-9.011 c 0,-0.676 0.04,-0.928 0.085,-0.56 0.046,0.368 0.045,0.921 -0.002,1.229 -0.047,0.308 -0.084,0.007 -0.083,-0.67 z m -0.22,-4.199 c 0,-0.394 0.041,-0.555 0.093,-0.358 0.051,0.197 0.051,0.52 0,0.717 -0.052,0.197 -0.094,0.036 -0.094,-0.359 z m -0.22,-2.867 c 0,-0.281 0.046,-0.397 0.102,-0.256 a 0.79,0.79 0 0 1 0,0.512 c -0.056,0.14 -0.103,0.026 -0.103,-0.256 z m -0.206,-2.253 c 0,-0.281 0.047,-0.396 0.104,-0.256 a 0.79,0.79 0 0 1 0,0.512 c -0.057,0.141 -0.104,0.026 -0.104,-0.256 z m -0.204,-1.843 c 0,-0.281 0.046,-0.397 0.103,-0.256 a 0.79,0.79 0 0 1 0,0.512 c -0.057,0.14 -0.103,0.026 -0.103,-0.256 z m -0.221,-1.758 c 0.01,-0.238 0.058,-0.287 0.123,-0.123 0.06,0.147 0.052,0.324 -0.016,0.392 -0.068,0.068 -0.116,-0.053 -0.107,-0.269 z m -0.205,-1.638 c 0.01,-0.239 0.058,-0.287 0.124,-0.124 0.059,0.148 0.051,0.325 -0.017,0.393 -0.068,0.068 -0.116,-0.053 -0.107,-0.27 z m -0.205,-1.434 c 0.01,-0.238 0.058,-0.287 0.124,-0.123 0.059,0.147 0.052,0.324 -0.016,0.392 -0.068,0.068 -0.117,-0.053 -0.108,-0.269 z m 51.429,-13.002 c -1.99,-36.459 -16.574,-70.706 -41.679,-97.866 -4.907,-5.309 -12.41,-12.192 -19.647,-18.024 -1.32,-1.063 -2.372,-1.959 -2.34,-1.991 0.196,-0.196 5.805,0.505 10.912,1.364 10.187,1.712 17.804,3.573 25.885,6.324 6.772,2.305 13.684,5.23 15.888,6.723 1.298,0.88 2.548,1.553 3.341,1.798 0.469,0.145 0.46,0.109 -0.205,-0.817 -0.382,-0.532 -0.843,-1.073 -1.025,-1.2 -0.182,-0.128 -0.348,-0.325 -0.369,-0.437 -0.107,-0.584 -4.913,-6.23 -8.792,-10.328 -6.68,-7.057 -17.471,-16.488 -27.373,-23.92 -20.754,-15.58 -45.416,-27.94 -70.144,-35.152 -11.48,-3.349 -26.295,-6.254 -35.078,-6.879 -1.552,-0.11 -2.966,-0.281 -3.143,-0.38 -0.254,-0.143 0.363,-0.756 2.924,-2.909 1.785,-1.5 5.37,-4.855 7.967,-7.455 14.111,-14.132 23.196,-28.922 29.852,-48.6 l 1.114,-3.292 4.173,2.147 c 14.362,7.39 27.175,15.849 39.202,25.882 9.457,7.89 18.976,17.406 26.874,26.865 27.69,33.164 44.65,74.016 48.57,116.994 0.632,6.933 0.834,11.644 0.834,19.456 0,17.356 -1.744,32.332 -5.747,49.352 -0.556,2.363 -1.013,4.53 -1.016,4.813 0,0.284 -0.168,0.878 -0.366,1.32 l -0.362,0.805 z M 46.37,304.351 c 0.01,-0.238 0.059,-0.287 0.124,-0.123 0.06,0.148 0.052,0.324 -0.016,0.392 -0.068,0.068 -0.116,-0.053 -0.108,-0.268 z m -0.204,-1.228 c 0.01,-0.239 0.058,-0.287 0.123,-0.124 0.06,0.148 0.052,0.325 -0.016,0.393 -0.068,0.068 -0.116,-0.053 -0.107,-0.27 z m -0.205,-1.229 c 0.01,-0.239 0.058,-0.287 0.124,-0.124 0.059,0.148 0.051,0.325 -0.017,0.393 -0.068,0.068 -0.116,-0.053 -0.107,-0.269 z m -0.82,-5.734 c 0.01,-0.239 0.059,-0.288 0.124,-0.124 0.06,0.148 0.052,0.324 -0.016,0.392 -0.068,0.068 -0.116,-0.053 -0.107,-0.268 z m -0.204,-1.639 c 0.01,-0.238 0.058,-0.287 0.124,-0.124 0.059,0.148 0.051,0.325 -0.017,0.393 -0.068,0.068 -0.116,-0.053 -0.107,-0.269 z m -0.189,-1.724 c 0,-0.281 0.047,-0.396 0.103,-0.256 a 0.79,0.79 0 0 1 0,0.512 c -0.056,0.141 -0.103,0.026 -0.103,-0.256 z m -0.205,-1.843 c 0,-0.281 0.047,-0.397 0.104,-0.256 a 0.79,0.79 0 0 1 0,0.512 c -0.057,0.141 -0.104,0.026 -0.104,-0.256 z m -0.204,-2.048 c 0,-0.281 0.046,-0.397 0.103,-0.256 a 0.79,0.79 0 0 1 0,0.512 c -0.057,0.141 -0.103,0.026 -0.103,-0.256 z m -0.205,-2.457 c 0,-0.282 0.046,-0.397 0.103,-0.256 a 0.79,0.79 0 0 1 0,0.512 c -0.057,0.14 -0.103,0.025 -0.103,-0.256 z m -0.197,-2.765 c 0.004,-0.338 0.05,-0.452 0.102,-0.252 0.051,0.199 0.048,0.475 -0.008,0.614 -0.057,0.139 -0.099,-0.024 -0.095,-0.362 z m -0.19,-3.584 c 0,-0.507 0.04,-0.714 0.09,-0.46 a 2.92,2.92 0 0 1 0,0.92 c -0.05,0.254 -0.09,0.047 -0.09,-0.46 z m -0.193,-5.837 c 10e-4,-0.788 0.038,-1.086 0.083,-0.661 0.044,0.425 0.043,1.07 -0.002,1.434 -0.046,0.363 -0.082,0.016 -0.081,-0.773 z m 0.185,-4.403 c 0,-0.394 0.042,-0.556 0.094,-0.359 0.052,0.198 0.052,0.52 0,0.717 -0.051,0.197 -0.094,0.036 -0.094,-0.358 z m 330.884,-14.695 c -0.255,-0.324 -0.248,-0.332 0.077,-0.077 0.197,0.155 0.358,0.316 0.358,0.359 0,0.168 -0.168,0.06 -0.435,-0.282 z m -257.826,-2.15 c 0.849,-0.904 1.032,-1.067 1.032,-0.913 0,0.033 -0.437,0.47 -0.972,0.973 l -0.973,0.913 z m 256.392,0.512 c -0.255,-0.325 -0.248,-0.332 0.077,-0.077 0.341,0.267 0.45,0.435 0.281,0.435 -0.042,0 -0.203,-0.16 -0.358,-0.358 z m -1.53,-1.74 -0.39,-0.462 0.461,0.39 c 0.254,0.215 0.461,0.423 0.461,0.461 0,0.164 -0.165,0.043 -0.531,-0.39 z m -2.857,-3.073 -0.81,-0.87 0.871,0.81 c 0.81,0.752 0.965,0.93 0.81,0.93 -0.034,0 -0.426,-0.391 -0.87,-0.87 z m -5.213,-5.17 c -0.497,-0.508 -0.858,-0.923 -0.802,-0.923 0.057,0 0.51,0.415 1.007,0.922 0.498,0.507 0.859,0.922 0.802,0.922 -0.056,0 -0.51,-0.415 -1.007,-0.922 z m -2.989,-2.817 -0.39,-0.46 0.461,0.39 c 0.433,0.366 0.554,0.53 0.39,0.53 -0.039,0 -0.246,-0.207 -0.46,-0.46 z m -1.952,-1.74 c -0.255,-0.326 -0.247,-0.333 0.077,-0.078 0.342,0.267 0.45,0.436 0.282,0.436 -0.043,0 -0.204,-0.162 -0.359,-0.359 z m -2.867,-2.458 c -0.255,-0.325 -0.248,-0.332 0.077,-0.078 0.197,0.155 0.359,0.316 0.359,0.359 0,0.168 -0.169,0.06 -0.436,-0.281 z m -83.532,-5.454 c 0,-0.042 0.16,-0.203 0.358,-0.358 0.325,-0.255 0.332,-0.248 0.077,0.077 -0.267,0.341 -0.435,0.45 -0.435,0.281 z m -9.87,-2.11 c 0.149,-0.06 0.325,-0.052 0.393,0.016 0.068,0.068 -0.053,0.116 -0.268,0.108 -0.239,-0.01 -0.288,-0.059 -0.124,-0.124 z m -12.697,-2.663 c 0.148,-0.059 0.325,-0.052 0.393,0.017 0.068,0.068 -0.053,0.116 -0.269,0.107 -0.239,-0.01 -0.287,-0.058 -0.124,-0.124 z m -6.144,-1.024 c 0.148,-0.059 0.325,-0.052 0.393,0.017 0.068,0.068 -0.053,0.116 -0.269,0.107 -0.239,-0.01 -0.287,-0.058 -0.124,-0.124 z m -4.3,-0.614 c 0.147,-0.06 0.324,-0.052 0.392,0.016 0.068,0.068 -0.053,0.117 -0.269,0.108 -0.238,-0.01 -0.287,-0.059 -0.124,-0.124 z m -53.863,-0.205 c 0.148,-0.059 0.325,-0.052 0.393,0.016 0.068,0.068 -0.053,0.117 -0.27,0.108 -0.238,-0.01 -0.286,-0.058 -0.123,-0.124 z m 50.586,-0.205 c 0.147,-0.059 0.324,-0.052 0.392,0.017 0.068,0.068 -0.053,0.116 -0.269,0.107 -0.238,-0.01 -0.287,-0.058 -0.123,-0.124 z m -47.514,-0.204 c 0.148,-0.06 0.325,-0.052 0.393,0.016 0.068,0.068 -0.053,0.116 -0.27,0.107 -0.238,-0.01 -0.286,-0.058 -0.123,-0.123 z m 45.875,0 c 0.148,-0.06 0.325,-0.052 0.393,0.016 0.068,0.068 -0.053,0.116 -0.269,0.107 -0.239,-0.01 -0.287,-0.058 -0.124,-0.123 z m -44.032,-0.205 c 0.148,-0.06 0.325,-0.052 0.393,0.016 0.068,0.068 -0.053,0.116 -0.269,0.108 -0.239,-0.01 -0.287,-0.059 -0.124,-0.124 z m 41.971,0.004 a 0.79,0.79 0 0 1 0.512,0 c 0.141,0.057 0.026,0.103 -0.256,0.103 -0.281,0 -0.396,-0.046 -0.256,-0.103 z m -40.128,-0.21 c 0.148,-0.059 0.325,-0.051 0.393,0.017 0.068,0.068 -0.053,0.116 -0.269,0.107 -0.238,-0.01 -0.287,-0.058 -0.124,-0.123 z m 38.08,0.005 a 0.79,0.79 0 0 1 0.512,0 c 0.141,0.056 0.026,0.103 -0.256,0.103 -0.281,0 -0.396,-0.047 -0.256,-0.103 z m -36.044,-0.205 a 0.79,0.79 0 0 1 0.512,0 c 0.14,0.057 0.025,0.103 -0.256,0.103 -0.282,0 -0.397,-0.046 -0.256,-0.103 z m 33.587,0 a 0.79,0.79 0 0 1 0.512,0 c 0.14,0.057 0.025,0.103 -0.256,0.103 -0.282,0 -0.397,-0.046 -0.256,-0.103 z m -31.023,-0.211 c 0.199,-0.052 0.475,-0.049 0.614,0.008 0.139,0.056 -0.024,0.098 -0.362,0.094 -0.338,-0.004 -0.452,-0.05 -0.252,-0.102 z m 28.262,0 c 0.2,-0.052 0.476,-0.049 0.614,0.008 0.139,0.056 -0.024,0.098 -0.362,0.094 -0.338,-0.004 -0.451,-0.05 -0.252,-0.102 z M 117.42,222.892 c 0,-0.15 0.137,-0.273 0.304,-0.273 0.23,0 0.249,0.066 0.077,0.273 -0.125,0.15 -0.261,0.273 -0.304,0.273 -0.042,0 -0.077,-0.123 -0.077,-0.273 z m 82.38,0.132 c 0.198,-0.052 0.52,-0.052 0.717,0 0.198,0.051 0.036,0.093 -0.358,0.093 -0.394,0 -0.555,-0.042 -0.358,-0.093 z m 21.814,-0.004 c 0.255,-0.05 0.624,-0.047 0.82,0.004 0.195,0.051 -0.013,0.091 -0.464,0.089 -0.45,-0.002 -0.61,-0.044 -0.356,-0.093 z m -17.205,-0.208 a 6.523,6.523 0 0 1 1.33,0 c 0.367,0.045 0.067,0.082 -0.665,0.082 -0.732,0 -1.031,-0.037 -0.665,-0.082 z m 11.669,0 a 7.682,7.682 0 0 1 1.433,-0.002 c 0.425,0.044 0.128,0.081 -0.66,0.082 -0.79,0.001 -1.137,-0.035 -0.773,-0.08 z m 50.82,-0.415 c -0.255,-0.325 -0.248,-0.332 0.077,-0.078 0.197,0.155 0.358,0.316 0.358,0.359 0,0.168 -0.168,0.06 -0.435,-0.281 z m -148.583,-0.585 c 0.163,-0.326 0.714,-1.469 1.225,-2.539 2.48,-5.192 6.061,-8.865 10.433,-10.702 1.06,-0.445 1.8,-0.616 2.697,-0.623 2.88,-0.02 3.97,1.69 4.019,6.304 0.017,1.633 -0.049,2.026 -0.472,2.82 l -0.491,0.924 -0.356,-1.002 c -0.627,-1.765 -2.113,-2.836 -3.94,-2.84 -1.047,-0.001 -3.729,0.77 -5.281,1.52 -2.064,0.996 -3.11,1.796 -5.782,4.423 -1.429,1.404 -2.232,2.076 -2.052,1.715 z m -0.658,-0.081 c 0,-0.282 0.046,-0.397 0.103,-0.256 a 0.79,0.79 0 0 1 0,0.512 c -0.057,0.14 -0.103,0.026 -0.103,-0.256 z m 147.513,-1.28 -0.601,-0.666 0.665,0.602 c 0.62,0.56 0.76,0.73 0.602,0.73 -0.036,0 -0.335,-0.3 -0.666,-0.666 z m -5.325,-5.325 -0.601,-0.665 0.665,0.601 c 0.62,0.56 0.76,0.73 0.602,0.73 -0.035,0 -0.335,-0.3 -0.666,-0.666 z m -2.259,-2.048 -0.39,-0.46 0.46,0.39 c 0.434,0.366 0.555,0.531 0.39,0.531 -0.038,0 -0.245,-0.207 -0.46,-0.46 z m -119.465,-2.116 c 0.01,-0.239 0.058,-0.287 0.124,-0.124 0.059,0.148 0.051,0.325 -0.017,0.393 -0.068,0.068 -0.116,-0.053 -0.107,-0.269 z m 0,-2.662 c 0.01,-0.239 0.058,-0.288 0.124,-0.124 0.059,0.148 0.051,0.324 -0.017,0.392 -0.068,0.068 -0.116,-0.053 -0.107,-0.268 z m -13.43,-0.29 c 0.203,-0.226 0.416,-0.41 0.472,-0.41 0.057,0 -0.064,0.184 -0.268,0.41 -0.204,0.225 -0.417,0.409 -0.473,0.409 -0.056,0 0.064,-0.184 0.268,-0.41 z m 11.965,-3.226 -0.497,-0.563 0.563,0.496 c 0.31,0.273 0.563,0.527 0.563,0.563 0,0.16 -0.165,0.03 -0.63,-0.496 z m -3.411,-1.422 c 0.199,-0.052 0.475,-0.049 0.614,0.008 0.139,0.056 -0.024,0.099 -0.362,0.094 -0.338,-0.004 -0.452,-0.05 -0.252,-0.102 z m 143.676,-2.25 c 0.147,-0.06 0.324,-0.053 0.392,0.015 0.068,0.068 -0.053,0.117 -0.269,0.108 -0.238,-0.01 -0.287,-0.058 -0.123,-0.124 z m -1.434,-0.206 c 0.148,-0.059 0.325,-0.052 0.393,0.017 0.068,0.068 -0.053,0.116 -0.27,0.107 -0.238,-0.01 -0.286,-0.058 -0.123,-0.124 z m -1.434,-0.204 c 0.148,-0.06 0.325,-0.052 0.393,0.016 0.068,0.068 -0.053,0.116 -0.269,0.107 -0.238,-0.01 -0.287,-0.058 -0.124,-0.123 z m -1.638,-0.205 c 0.148,-0.06 0.325,-0.052 0.393,0.016 0.068,0.068 -0.053,0.116 -0.27,0.107 -0.238,-0.01 -0.286,-0.058 -0.123,-0.123 z m -1.856,-0.2 a 0.79,0.79 0 0 1 0.512,0 c 0.14,0.056 0.026,0.102 -0.256,0.102 -0.282,0 -0.397,-0.046 -0.256,-0.103 z m -1.843,-0.206 a 0.79,0.79 0 0 1 0.512,0 c 0.14,0.057 0.025,0.104 -0.256,0.104 -0.282,0 -0.397,-0.047 -0.256,-0.104 z m -2.048,-0.204 a 0.79,0.79 0 0 1 0.512,0 c 0.14,0.056 0.025,0.103 -0.256,0.103 -0.282,0 -0.397,-0.047 -0.256,-0.103 z m -2.458,-0.205 a 0.79,0.79 0 0 1 0.512,0 c 0.141,0.057 0.026,0.103 -0.256,0.103 -0.281,0 -0.397,-0.046 -0.256,-0.103 z m -2.97,-0.21 c 0.198,-0.052 0.52,-0.052 0.717,0 0.198,0.051 0.036,0.093 -0.358,0.093 -0.394,0 -0.555,-0.042 -0.358,-0.094 z m -3.788,-0.209 a 2.92,2.92 0 0 1 0.921,0 c 0.254,0.05 0.047,0.089 -0.46,0.089 -0.507,0 -0.715,-0.04 -0.461,-0.089 z m -20.272,-0.208 a 5.463,5.463 0 0 1 1.23,0.002 c 0.307,0.046 0.006,0.084 -0.67,0.083 -0.676,-10e-4 -0.928,-0.04 -0.56,-0.085 z m 9.11,-0.004 a 89.278,89.278 0 0 1 4.403,0 c 1.211,0.036 0.22,0.065 -2.201,0.065 -2.422,0 -3.413,-0.03 -2.202,-0.065 z m 156.097,-14.912 c -0.382,-0.306 -0.38,-0.31 0.063,-0.095 0.254,0.123 0.461,0.266 0.461,0.319 0,0.156 -0.106,0.111 -0.524,-0.224 z m -6.382,-0.756 c -0.307,-0.397 -0.5,-0.768 -0.4,-0.768 0.05,0 0.242,0.23 0.426,0.512 0.346,0.527 0.326,0.712 -0.026,0.256 z m 4.039,-0.461 c -0.732,-0.383 -1.26,-0.702 -1.172,-0.707 0.218,-0.014 2.605,1.2 2.605,1.324 0,0.138 0.048,0.159 -1.433,-0.617 z m -4.788,-0.827 c -0.197,-0.515 -0.139,-0.648 0.102,-0.233 0.12,0.206 0.175,0.417 0.122,0.47 -0.053,0.052 -0.153,-0.054 -0.224,-0.237 z m 1.92,-0.504 c -0.168,-0.11 -0.214,-0.199 -0.102,-0.199 0.113,0 0.343,0.09 0.512,0.199 0.17,0.109 0.215,0.198 0.103,0.198 -0.113,0 -0.343,-0.09 -0.512,-0.198 z m -2.457,-0.826 c 0,-0.11 0.138,-0.198 0.307,-0.198 0.17,0 0.307,0.036 0.307,0.08 0,0.044 -0.138,0.134 -0.307,0.198 -0.169,0.065 -0.307,0.03 -0.307,-0.08 z m -49.6,-6.073 c 0.148,-0.059 0.325,-0.052 0.393,0.017 0.068,0.068 -0.053,0.116 -0.27,0.107 -0.238,-0.01 -0.286,-0.058 -0.123,-0.124 z m -1.434,-0.204 c 0.148,-0.06 0.325,-0.052 0.393,0.016 0.068,0.068 -0.053,0.116 -0.269,0.107 -0.238,-0.01 -0.287,-0.058 -0.124,-0.123 z m -12.697,-0.205 c 0.148,-0.06 0.324,-0.052 0.392,0.016 0.068,0.068 -0.053,0.116 -0.268,0.107 -0.239,-0.01 -0.288,-0.058 -0.124,-0.123 z m 11.264,0 c 0.148,-0.06 0.324,-0.052 0.392,0.016 0.068,0.068 -0.053,0.116 -0.268,0.107 -0.239,-0.01 -0.288,-0.058 -0.124,-0.123 z m -1.639,-0.205 c 0.148,-0.06 0.325,-0.052 0.393,0.016 0.068,0.068 -0.053,0.117 -0.269,0.108 -0.238,-0.01 -0.287,-0.059 -0.124,-0.124 z m -1.638,-0.205 c 0.148,-0.06 0.325,-0.052 0.393,0.016 0.068,0.068 -0.053,0.117 -0.27,0.108 -0.238,-0.01 -0.286,-0.059 -0.123,-0.124 z m -2.266,-0.2 a 0.79,0.79 0 0 1 0.512,0 c 0.141,0.056 0.026,0.103 -0.256,0.103 -0.281,0 -0.396,-0.047 -0.256,-0.103 z m -7.577,-0.205 a 0.79,0.79 0 0 1 0.512,0 c 0.14,0.057 0.025,0.103 -0.256,0.103 -0.282,0 -0.397,-0.046 -0.256,-0.103 z m 4.813,-0.006 c 0.197,-0.052 0.52,-0.052 0.716,0 0.198,0.051 0.036,0.093 -0.358,0.093 -0.394,0 -0.555,-0.042 -0.358,-0.093 z m -128.096,-4.72 a 16.73,16.73 0 0 1 2.048,0 c 0.531,0.042 0.044,0.076 -1.082,0.076 -1.126,0 -1.561,-0.035 -0.966,-0.077 z m -2.392,-0.979 c -1.032,-4.097 1.4,-9.277 6.136,-13.066 2.953,-2.362 8.288,-5.03 16.473,-8.237 4.02,-1.575 10.367,-3.826 10.478,-3.715 0.168,0.168 -1.244,4 -2.127,5.77 -3.326,6.666 -9.56,12.374 -17.207,15.753 -2.287,1.01 -6.52,2.437 -10.395,3.5 -1.464,0.403 -2.768,0.768 -2.898,0.812 -0.134,0.045 -0.332,-0.305 -0.46,-0.816 z m 7.612,0.783 c 0.199,-0.052 0.475,-0.049 0.614,0.008 0.139,0.056 -0.024,0.098 -0.362,0.094 -0.338,-0.004 -0.452,-0.05 -0.252,-0.102 z m 2.35,-0.199 a 0.79,0.79 0 0 1 0.513,0 c 0.14,0.057 0.025,0.104 -0.256,0.104 -0.282,0 -0.397,-0.047 -0.256,-0.104 z m 2.049,-0.204 a 0.79,0.79 0 0 1 0.512,0 c 0.14,0.056 0.025,0.103 -0.256,0.103 -0.282,0 -0.397,-0.047 -0.256,-0.103 z m 1.856,-0.21 c 0.148,-0.059 0.324,-0.051 0.392,0.017 0.068,0.068 -0.053,0.116 -0.268,0.107 -0.239,-0.01 -0.288,-0.058 -0.124,-0.124 z m 44.173,-5.799 c 0.44,-0.45 0.846,-0.819 0.902,-0.819 0.056,0 -0.258,0.369 -0.698,0.82 -0.44,0.45 -0.846,0.818 -0.902,0.818 -0.056,0 0.258,-0.368 0.698,-0.819 z m 2.15,-2.33 c 0,-0.042 0.161,-0.204 0.358,-0.358 0.325,-0.255 0.333,-0.248 0.078,0.077 -0.268,0.341 -0.436,0.45 -0.436,0.281 z m -24.166,-1.229 c 0,-0.042 0.16,-0.204 0.358,-0.358 0.325,-0.255 0.332,-0.248 0.077,0.077 -0.267,0.341 -0.435,0.45 -0.435,0.281 z m 2.867,-2.687 c 0.726,-0.732 1.365,-1.331 1.422,-1.331 0.056,0 -0.492,0.599 -1.217,1.33 -0.726,0.733 -1.366,1.332 -1.422,1.332 -0.056,0 0.491,-0.6 1.217,-1.331 z m 2.253,-2.433 c 0,-0.042 0.16,-0.204 0.358,-0.358 0.325,-0.255 0.332,-0.248 0.077,0.077 -0.267,0.341 -0.435,0.45 -0.435,0.281 z m 31.539,-16.793 c 0,-0.043 0.161,-0.204 0.358,-0.359 0.325,-0.255 0.332,-0.247 0.078,0.078 -0.268,0.34 -0.436,0.45 -0.436,0.28 z m -21.488,-3.524 c 0.01,-0.239 0.058,-0.287 0.124,-0.124 0.059,0.148 0.052,0.325 -0.016,0.393 -0.068,0.068 -0.117,-0.053 -0.108,-0.27 z m 56.1,-17.161 c 0,-0.043 0.16,-0.204 0.357,-0.359 0.325,-0.254 0.333,-0.247 0.078,0.078 -0.268,0.34 -0.436,0.45 -0.436,0.28 z m 1.433,-1.229 c 0,-0.042 0.16,-0.204 0.358,-0.358 0.325,-0.255 0.332,-0.248 0.077,0.077 -0.267,0.341 -0.435,0.45 -0.435,0.281 z m 1.638,-1.434 c 0,-0.042 0.161,-0.203 0.358,-0.358 0.325,-0.255 0.333,-0.247 0.078,0.077 -0.268,0.341 -0.436,0.45 -0.436,0.281 z m 2.048,-1.83 c 0,-0.035 0.3,-0.334 0.666,-0.665 l 0.665,-0.602 -0.601,0.666 c -0.561,0.62 -0.73,0.76 -0.73,0.601 z m 6.349,-6.348 c 0,-0.036 0.3,-0.335 0.665,-0.666 l 0.666,-0.601 -0.601,0.665 c -0.561,0.62 -0.73,0.76 -0.73,0.602 z m 2.765,-3.008 c 0.204,-0.226 0.416,-0.41 0.473,-0.41 0.056,0 -0.065,0.184 -0.269,0.41 -0.203,0.225 -0.416,0.41 -0.473,0.41 -0.056,0 0.065,-0.185 0.269,-0.41 z m 1.33,-1.511 c 0,-0.043 0.162,-0.204 0.36,-0.359 0.324,-0.254 0.331,-0.247 0.077,0.078 -0.268,0.34 -0.436,0.45 -0.436,0.28 z m 1.23,-1.434 c 0,-0.042 0.16,-0.204 0.358,-0.358 0.325,-0.255 0.332,-0.248 0.077,0.077 -0.267,0.341 -0.435,0.45 -0.435,0.281 z m -5.735,-7.775 c 0,-0.265 0.208,-0.656 0.461,-0.87 l 0.46,-0.391 -0.383,0.454 c -0.225,0.266 -0.34,0.626 -0.275,0.87 0.06,0.23 0.025,0.417 -0.077,0.417 -0.102,0 -0.186,-0.216 -0.186,-0.48 z m 13.163,-3.553 c 0.199,-0.052 0.475,-0.049 0.614,0.007 0.139,0.056 -0.024,0.099 -0.362,0.095 -0.338,-0.005 -0.452,-0.05 -0.252,-0.102 z m 18.393,-33.36 c 0.01,-0.239 0.058,-0.287 0.123,-0.124 0.06,0.148 0.052,0.324 -0.016,0.392 -0.068,0.069 -0.116,-0.052 -0.107,-0.268 z m 0.204,-1.434 c 0.01,-0.238 0.059,-0.287 0.124,-0.124 0.06,0.148 0.052,0.325 -0.016,0.393 -0.068,0.068 -0.116,-0.053 -0.108,-0.269 z m 0.41,-3.072 c 0.01,-0.238 0.058,-0.287 0.124,-0.124 0.059,0.148 0.052,0.325 -0.016,0.393 -0.068,0.068 -0.117,-0.053 -0.108,-0.269 z m 0.205,-1.843 c 0.01,-0.239 0.058,-0.287 0.124,-0.124 0.059,0.148 0.051,0.325 -0.017,0.393 -0.068,0.068 -0.116,-0.053 -0.107,-0.27 z m 0.205,-1.843 c 0.01,-0.239 0.058,-0.287 0.123,-0.124 0.06,0.148 0.052,0.324 -0.016,0.392 -0.068,0.069 -0.116,-0.052 -0.107,-0.268 z m 0.22,-2.134 c 0,-0.281 0.047,-0.396 0.104,-0.256 a 0.79,0.79 0 0 1 0,0.512 c -0.057,0.141 -0.103,0.026 -0.103,-0.256 z m 0.213,-2.56 c 0.004,-0.338 0.05,-0.451 0.102,-0.252 0.052,0.2 0.048,0.476 -0.008,0.615 -0.056,0.138 -0.099,-0.025 -0.094,-0.363 z m 0.216,-3.276 c 0.002,-0.451 0.045,-0.611 0.094,-0.356 0.049,0.254 0.047,0.623 -0.004,0.819 -0.052,0.196 -0.092,-0.013 -0.09,-0.463 z m 0.223,-5.223 c 0,-0.845 0.036,-1.19 0.08,-0.768 a 8.913,8.913 0 0 1 0,1.536 c -0.044,0.423 -0.08,0.077 -0.08,-0.768 z"
     style="display:inline;fill:#5190cc"
     id="path2" /><path
     d="m 251.666,480.682 c -8.444,-0.319 -15.995,-0.918 -23.04,-1.828 -28.9,-3.732 -56.345,-13.26 -81.294,-28.224 -11.169,-6.699 -24.689,-16.511 -29.082,-21.107 -0.388,-0.406 -0.817,-0.738 -0.952,-0.738 -0.367,0 -2.153,-1.414 -3.037,-2.403 l -0.774,-0.867 0.644,0.224 c 0.354,0.124 1.127,0.666 1.718,1.206 0.591,0.54 1.946,1.557 3.012,2.26 a 63.411,63.411 0 0 1 3.679,2.655 c 5.785,4.579 17.068,10.863 26.829,14.944 12.816,5.357 26.384,8.852 38.195,9.836 1.014,0.085 2.442,0.301 3.174,0.481 0.732,0.18 3.543,0.47 6.247,0.645 5.028,0.326 8.573,0.258 16.896,-0.32 17.722,-1.234 35.11,-5.526 51.814,-12.791 4.397,-1.913 13.166,-6.37 17.306,-8.798 26.294,-15.416 46.816,-38.523 55.507,-62.5 2.071,-5.714 3.742,-12.672 4.642,-19.324 0.6,-4.443 0.65,-12.637 0.1,-16.59 -1.252,-8.998 -3.625,-17.212 -7.072,-24.473 -0.734,-1.547 -0.792,-1.612 -1.029,-1.173 -0.138,0.256 -0.558,1.684 -0.934,3.174 -1.278,5.066 -2.947,8.836 -5.848,13.208 -0.877,1.322 -2.244,3.074 -3.037,3.893 -0.845,0.871 -1.546,1.801 -1.692,2.244 -0.244,0.74 -1.172,1.694 -6.372,6.552 -2.026,1.892 -4.776,4.013 -8.05,6.207 -2.998,2.008 -6.442,4.09 -6.766,4.09 -0.197,0 -0.17,-0.24 0.106,-0.972 0.981,-2.599 3.11,-12.058 3.77,-16.743 1.168,-8.311 0.72,-17.453 -1.234,-25.19 -4.053,-16.048 -13.514,-28.975 -28.645,-39.138 -3.224,-2.165 -5.838,-3.768 -6.145,-3.768 -0.1,0 0.136,0.346 0.524,0.768 l 0.706,0.768 -0.76,-0.698 c -0.418,-0.384 -0.715,-0.77 -0.66,-0.86 0.144,-0.234 -0.695,-0.638 -0.971,-0.468 -0.151,0.094 -0.175,0.052 -0.07,-0.12 0.109,-0.175 0.068,-0.23 -0.122,-0.165 -0.156,0.053 -0.616,-0.112 -1.02,-0.366 -1.282,-0.805 -5.684,-2.95 -8.002,-3.899 -8.699,-3.563 -26.243,-8.268 -36.114,-9.684 -5.17,-0.742 -8.557,-0.934 -16.486,-0.934 -10.026,0 -16.037,0.607 -24.284,2.456 -13.22,2.963 -19.315,6.356 -21.207,11.804 -0.639,1.839 -0.655,5.469 -0.033,7.235 0.86,2.44 2.935,6.921 3.667,7.919 l 0.749,1.019 -0.694,-0.114 c -0.382,-0.063 -2.537,-0.259 -4.79,-0.435 -10.412,-0.813 -21.664,-4.512 -29.73,-9.775 -4.722,-3.082 -9.555,-7.458 -13.1,-11.862 -1.059,-1.317 -2.11,-2.452 -2.335,-2.524 -0.397,-0.126 -0.398,-0.147 -0.047,-0.748 0.409,-0.7 3.064,-3.29 3.749,-3.657 0.262,-0.14 0.396,-0.153 0.32,-0.03 -0.411,0.664 0.592,0.253 3.191,-1.308 3.832,-2.301 11.05,-5.844 15.424,-7.57 16.103,-6.357 34.557,-9.904 53.453,-10.275 10.456,-0.205 24.829,0.93 35.724,2.818 7.905,1.371 17.292,3.496 24.897,5.638 6.708,1.889 17.526,5.457 20.753,6.845 0.858,0.37 1.115,0.407 1.365,0.2 0.169,-0.14 0.307,-0.387 0.307,-0.548 0,-0.434 -2.252,-4.275 -4.421,-7.542 -2.053,-3.09 -4.677,-6.542 -6.656,-8.755 -0.68,-0.76 -1.131,-1.382 -1.003,-1.382 0.13,0 2.309,0.478 4.843,1.063 4.802,1.108 5.218,1.126 5.351,0.24 0.033,-0.217 -0.25,-0.807 -0.627,-1.31 a 659.98,659.98 0 0 1 -2.17,-2.92 c -2.356,-3.189 -4.873,-5.987 -8.858,-9.846 -3.404,-3.298 -3.652,-3.586 -3.02,-3.504 0.99,0.129 3.732,0.448 7.038,0.82 20.909,2.348 42.331,9.46 60.416,20.057 15.35,8.995 29.832,21.341 41.61,35.474 17.063,20.476 29.205,47.079 33.12,72.566 1.77,11.53 2.078,24.999 0.823,36.044 -1.15,10.122 -4.235,22.07 -8.275,32.052 -3.201,7.91 -8.892,18.058 -13.087,23.337 -1.066,1.34 -1.484,2.214 -1.548,3.229 -0.026,0.413 -2.014,2.813 -3.57,4.31 -3.475,3.342 -12.22,10.12 -18.046,13.983 -22.698,15.057 -51.543,23.64 -86.323,25.684 -3.759,0.221 -15.636,0.41 -18.637,0.298 z M 380.69,434.109 c 0.204,-0.225 0.417,-0.41 0.473,-0.41 0.057,0 -0.064,0.185 -0.268,0.41 -0.204,0.226 -0.417,0.41 -0.473,0.41 -0.056,0 0.064,-0.184 0.268,-0.41 z m 1.946,-2.125 c 0,-0.042 0.161,-0.204 0.358,-0.358 0.325,-0.255 0.332,-0.248 0.078,0.077 -0.268,0.341 -0.436,0.45 -0.436,0.281 z m -270.868,-7.96 -0.39,-0.462 0.461,0.39 c 0.253,0.215 0.46,0.422 0.46,0.461 0,0.164 -0.164,0.043 -0.53,-0.39 z m -2.756,-2.56 -0.706,-0.769 0.768,0.706 c 0.423,0.388 0.768,0.734 0.768,0.768 0,0.156 -0.173,0.009 -0.83,-0.706 z m -9.115,-9.115 -0.602,-0.665 0.666,0.601 c 0.62,0.561 0.76,0.73 0.601,0.73 -0.035,0 -0.335,-0.3 -0.665,-0.666 z m -2.465,-2.662 -0.39,-0.46 0.461,0.39 c 0.433,0.366 0.554,0.53 0.39,0.53 -0.039,0 -0.246,-0.207 -0.46,-0.46 z m -1.747,-1.946 c -0.255,-0.324 -0.248,-0.332 0.077,-0.077 0.197,0.155 0.359,0.316 0.359,0.359 0,0.168 -0.169,0.06 -0.436,-0.282 z m -1.434,-1.638 c -0.254,-0.325 -0.247,-0.332 0.078,-0.077 0.34,0.267 0.45,0.435 0.28,0.435 -0.042,0 -0.203,-0.16 -0.358,-0.358 z m 87.228,-27.646 c 0.708,-0.04 1.814,-0.04 2.458,0 0.643,0.041 0.063,0.074 -1.288,0.073 -1.352,0 -1.878,-0.033 -1.17,-0.073 z m -6.252,-0.2 a 3.65,3.65 0 0 1 1.024,0.003 c 0.252,0.048 -0.003,0.087 -0.566,0.085 -0.563,-0.002 -0.769,-0.04 -0.458,-0.088 z m 13.514,0 c 0.31,-0.047 0.817,-0.047 1.127,0 0.31,0.047 0.056,0.085 -0.563,0.085 -0.62,0 -0.873,-0.038 -0.564,-0.085 z m -16.588,-0.2 c 0.197,-0.05 0.52,-0.05 0.716,0 0.198,0.052 0.036,0.095 -0.358,0.095 -0.394,0 -0.555,-0.043 -0.358,-0.094 z m 20.07,0 c 0.197,-0.05 0.52,-0.05 0.717,0 0.197,0.052 0.036,0.095 -0.359,0.095 -0.394,0 -0.555,-0.043 -0.358,-0.094 z m -22.32,-0.205 c 0.2,-0.052 0.476,-0.048 0.615,0.008 0.139,0.056 -0.024,0.099 -0.362,0.095 -0.338,-0.004 -0.452,-0.05 -0.252,-0.102 z m 24.986,0 c 0.2,-0.052 0.476,-0.048 0.615,0.008 0.138,0.056 -0.025,0.099 -0.363,0.095 -0.337,-0.004 -0.45,-0.05 -0.252,-0.102 z m -26.935,-0.198 a 0.79,0.79 0 0 1 0.512,0 c 0.141,0.057 0.026,0.103 -0.256,0.103 -0.281,0 -0.397,-0.046 -0.256,-0.103 z m 28.877,0 a 0.79,0.79 0 0 1 0.512,0 c 0.14,0.057 0.026,0.103 -0.256,0.103 -0.282,0 -0.397,-0.046 -0.256,-0.103 z m -30.502,-0.21 c 0.147,-0.058 0.324,-0.051 0.392,0.017 0.068,0.068 -0.053,0.116 -0.269,0.108 -0.238,-0.01 -0.287,-0.059 -0.123,-0.124 z m 32.345,0.005 a 0.79,0.79 0 0 1 0.512,0 c 0.141,0.057 0.026,0.103 -0.256,0.103 -0.281,0 -0.397,-0.046 -0.256,-0.103 z m -33.997,-0.205 a 0.79,0.79 0 0 1 0.512,0 c 0.141,0.057 0.026,0.103 -0.256,0.103 -0.281,0 -0.396,-0.046 -0.256,-0.103 z m 35.853,-0.004 c 0.148,-0.06 0.325,-0.052 0.393,0.016 0.068,0.068 -0.053,0.117 -0.269,0.108 -0.239,-0.01 -0.287,-0.059 -0.124,-0.124 z m -37.286,-0.2 a 0.79,0.79 0 0 1 0.512,0 c 0.14,0.056 0.025,0.103 -0.256,0.103 -0.282,0 -0.397,-0.047 -0.256,-0.104 z m 38.72,-0.005 c 0.148,-0.059 0.324,-0.051 0.392,0.017 0.068,0.068 -0.053,0.116 -0.268,0.107 -0.239,-0.01 -0.288,-0.058 -0.124,-0.124 z m -39.936,-0.204 c 0.148,-0.06 0.324,-0.052 0.392,0.016 0.068,0.068 -0.053,0.116 -0.268,0.107 -0.239,-0.01 -0.288,-0.058 -0.124,-0.123 z m 41.37,0 c 0.147,-0.06 0.324,-0.052 0.392,0.016 0.068,0.068 -0.053,0.116 -0.269,0.107 -0.238,-0.01 -0.287,-0.058 -0.124,-0.123 z m -42.599,-0.205 c 0.148,-0.06 0.325,-0.052 0.393,0.016 0.068,0.068 -0.053,0.116 -0.27,0.108 -0.238,-0.01 -0.286,-0.059 -0.123,-0.124 z m 43.827,0 c 0.148,-0.06 0.325,-0.052 0.393,0.016 0.068,0.068 -0.053,0.116 -0.269,0.108 -0.239,-0.01 -0.287,-0.059 -0.124,-0.124 z m -45.056,-0.205 c 0.148,-0.06 0.325,-0.052 0.393,0.016 0.068,0.068 -0.053,0.117 -0.269,0.108 -0.239,-0.01 -0.287,-0.059 -0.124,-0.124 z m 46.285,0 c 0.148,-0.06 0.325,-0.052 0.393,0.016 0.068,0.068 -0.053,0.117 -0.27,0.108 -0.238,-0.01 -0.286,-0.059 -0.123,-0.124 z m -47.309,-0.205 c 0.148,-0.059 0.325,-0.052 0.393,0.016 0.068,0.069 -0.053,0.117 -0.269,0.108 -0.239,-0.01 -0.287,-0.058 -0.124,-0.124 z m 48.538,0 c 0.148,-0.059 0.324,-0.052 0.392,0.016 0.068,0.069 -0.053,0.117 -0.268,0.108 -0.239,-0.01 -0.288,-0.058 -0.124,-0.124 z m 1.024,-0.205 c 0.148,-0.059 0.324,-0.051 0.392,0.017 0.068,0.068 -0.053,0.116 -0.268,0.107 -0.239,-0.01 -0.288,-0.058 -0.124,-0.124 z m 1.024,-0.204 c 0.148,-0.06 0.324,-0.052 0.392,0.016 0.068,0.068 -0.053,0.116 -0.268,0.107 -0.239,-0.01 -0.288,-0.058 -0.124,-0.123 z m 1.024,-0.205 c 0.148,-0.06 0.324,-0.052 0.392,0.016 0.068,0.068 -0.053,0.116 -0.268,0.108 -0.239,-0.01 -0.288,-0.059 -0.124,-0.124 z M 410.3,363.949 c 0.01,-0.239 0.058,-0.287 0.124,-0.124 0.059,0.148 0.052,0.324 -0.016,0.392 -0.068,0.069 -0.117,-0.052 -0.108,-0.268 z m 0.229,-2.85 c 0.004,-0.338 0.05,-0.452 0.102,-0.253 0.051,0.2 0.048,0.476 -0.008,0.615 -0.057,0.138 -0.099,-0.025 -0.095,-0.362 z m 0.248,-7.578 c 0,-1.915 0.03,-2.726 0.069,-1.802 0.037,0.924 0.038,2.49 0,3.481 -0.038,0.992 -0.069,0.236 -0.069,-1.68 z m -152.25,0.435 c 0,-0.043 0.161,-0.204 0.358,-0.359 0.325,-0.255 0.333,-0.247 0.078,0.077 -0.268,0.342 -0.436,0.45 -0.436,0.282 z m 2.048,-1.639 c 0,-0.042 0.161,-0.204 0.358,-0.358 0.325,-0.255 0.333,-0.248 0.078,0.077 -0.268,0.341 -0.436,0.45 -0.436,0.281 z m 1.331,-1.151 c 0.204,-0.226 0.417,-0.41 0.473,-0.41 0.057,0 -0.064,0.184 -0.268,0.41 -0.204,0.225 -0.417,0.41 -0.473,0.41 -0.056,0 0.064,-0.185 0.268,-0.41 z m -160.077,-0.973 c -0.255,-0.325 -0.248,-0.332 0.077,-0.077 0.341,0.267 0.45,0.435 0.281,0.435 -0.042,0 -0.204,-0.16 -0.358,-0.358 z m 161.613,-0.358 c 0.265,-0.282 0.527,-0.512 0.584,-0.512 0.056,0 -0.114,0.23 -0.379,0.512 -0.265,0.281 -0.527,0.512 -0.583,0.512 -0.057,0 0.114,-0.23 0.378,-0.512 z m 3.891,-3.687 c 1.292,-1.295 2.395,-2.355 2.451,-2.355 0.057,0 -0.954,1.06 -2.246,2.355 -1.291,1.295 -2.394,2.355 -2.45,2.355 -0.057,0 0.954,-1.06 2.245,-2.355 z m -169.6,0.768 c -0.255,-0.325 -0.248,-0.332 0.077,-0.077 0.341,0.267 0.45,0.436 0.281,0.436 -0.042,0 -0.204,-0.162 -0.358,-0.359 z m -1.325,-1.126 -0.39,-0.461 0.461,0.39 c 0.433,0.367 0.554,0.532 0.39,0.532 -0.039,0 -0.246,-0.208 -0.46,-0.461 z m 314.113,0.05 c 0,-0.28 0.046,-0.396 0.103,-0.255 a 0.79,0.79 0 0 1 0,0.512 c -0.057,0.14 -0.103,0.026 -0.103,-0.256 z m -315.645,-1.381 -0.496,-0.564 0.563,0.497 c 0.526,0.464 0.657,0.63 0.497,0.63 -0.037,0 -0.29,-0.254 -0.564,-0.563 z m -1.943,-1.741 -0.601,-0.666 0.665,0.602 c 0.367,0.33 0.666,0.63 0.666,0.665 0,0.158 -0.169,0.02 -0.73,-0.601 z m 317.383,0.05 c 0,-0.28 0.047,-0.396 0.103,-0.255 a 0.79,0.79 0 0 1 0,0.512 c -0.056,0.14 -0.103,0.026 -0.103,-0.256 z M 271.02,342.257 c 0.264,-0.282 0.527,-0.512 0.583,-0.512 0.057,0 -0.114,0.23 -0.378,0.512 -0.265,0.282 -0.527,0.512 -0.584,0.512 -0.056,0 0.114,-0.23 0.379,-0.512 z m -181.05,-2.304 -1.325,-1.382 1.383,1.325 c 0.76,0.729 1.382,1.35 1.382,1.382 0,0.15 -0.208,-0.041 -1.44,-1.325 z m 182.074,1.1 c 0,-0.042 0.161,-0.204 0.358,-0.358 0.325,-0.255 0.332,-0.248 0.078,0.077 -0.268,0.341 -0.436,0.45 -0.436,0.281 z m 138.051,-0.656 c 0.01,-0.239 0.059,-0.287 0.124,-0.124 0.06,0.148 0.052,0.324 -0.016,0.392 -0.068,0.069 -0.117,-0.052 -0.108,-0.268 z m -137.027,-0.573 c 0,-0.042 0.161,-0.203 0.358,-0.358 0.325,-0.255 0.332,-0.248 0.078,0.077 -0.268,0.341 -0.436,0.45 -0.436,0.281 z m 1.433,-1.843 c 0,-0.042 0.162,-0.204 0.359,-0.358 0.325,-0.255 0.332,-0.248 0.077,0.077 -0.267,0.341 -0.436,0.45 -0.436,0.281 z m -189.445,-2.943 -1.326,-1.383 1.383,1.326 c 1.284,1.23 1.476,1.44 1.325,1.44 -0.031,0 -0.654,-0.623 -1.382,-1.383 z m -2.977,-3.175 -0.602,-0.665 0.666,0.601 c 0.366,0.331 0.666,0.63 0.666,0.666 0,0.158 -0.17,0.019 -0.73,-0.602 z m -1.743,-1.945 -0.497,-0.563 0.563,0.496 c 0.527,0.464 0.657,0.63 0.497,0.63 -0.037,0 -0.29,-0.254 -0.563,-0.563 z M 79,328.382 l -0.39,-0.461 0.461,0.39 c 0.253,0.215 0.46,0.422 0.46,0.46 0,0.165 -0.164,0.044 -0.53,-0.39 z m -1.228,-1.434 -0.39,-0.46 0.46,0.39 c 0.433,0.366 0.554,0.53 0.39,0.53 -0.039,0 -0.246,-0.206 -0.46,-0.46 z m -1.024,-1.229 -0.39,-0.46 0.46,0.39 c 0.433,0.366 0.554,0.531 0.39,0.531 -0.039,0 -0.246,-0.207 -0.46,-0.46 z m -0.929,-1.126 c -0.254,-0.325 -0.247,-0.332 0.078,-0.077 0.34,0.267 0.45,0.435 0.28,0.435 -0.042,0 -0.203,-0.16 -0.358,-0.358 z M 75,323.569 c -0.255,-0.325 -0.247,-0.332 0.077,-0.077 0.342,0.267 0.45,0.435 0.282,0.435 -0.043,0 -0.204,-0.16 -0.359,-0.358 z m -0.82,-1.024 c -0.254,-0.325 -0.247,-0.332 0.078,-0.077 0.341,0.267 0.45,0.435 0.281,0.435 -0.042,0 -0.204,-0.16 -0.358,-0.358 z m -1.433,-1.843 c -0.254,-0.325 -0.247,-0.332 0.078,-0.078 0.34,0.268 0.45,0.436 0.28,0.436 -0.042,0 -0.203,-0.161 -0.358,-0.358 z m 213.854,-8.158 c 0.01,-0.239 0.058,-0.287 0.124,-0.124 0.059,0.148 0.051,0.325 -0.017,0.393 -0.068,0.068 -0.116,-0.053 -0.107,-0.27 z m 0.426,-2.543 c 0,-0.282 0.046,-0.397 0.103,-0.256 a 0.79,0.79 0 0 1 0,0.512 c -0.057,0.14 -0.103,0.026 -0.103,-0.256 z m 0.22,-1.843 c 0,-0.395 0.042,-0.556 0.093,-0.359 0.052,0.197 0.052,0.52 0,0.717 -0.051,0.197 -0.093,0.036 -0.093,-0.358 z m 0.23,-4.096 c 0,-1.07 0.035,-1.508 0.077,-0.973 0.043,0.535 0.043,1.41 0,1.946 -0.042,0.535 -0.076,0.097 -0.076,-0.973 z m -0.23,-4.301 c 0,-0.394 0.042,-0.556 0.093,-0.358 0.052,0.197 0.052,0.52 0,0.716 -0.051,0.197 -0.093,0.036 -0.093,-0.358 z m -0.22,-1.843 c 0,-0.282 0.046,-0.397 0.103,-0.256 a 0.79,0.79 0 0 1 0,0.512 c -0.057,0.14 -0.103,0.025 -0.103,-0.256 z m -0.221,-1.553 c 0.01,-0.239 0.058,-0.287 0.123,-0.124 0.06,0.148 0.052,0.324 -0.016,0.392 -0.068,0.069 -0.116,-0.052 -0.107,-0.268 z m -0.205,-1.23 c 0.01,-0.238 0.058,-0.286 0.124,-0.123 0.059,0.148 0.051,0.325 -0.017,0.393 -0.068,0.068 -0.116,-0.053 -0.107,-0.27 z M 44.322,288.174 c 0.01,-0.239 0.059,-0.287 0.124,-0.124 0.06,0.148 0.052,0.324 -0.016,0.392 -0.068,0.069 -0.117,-0.052 -0.108,-0.268 z m -0.188,-2.543 c 0,-0.282 0.046,-0.397 0.103,-0.256 a 0.79,0.79 0 0 1 0,0.512 c -0.057,0.14 -0.103,0.025 -0.103,-0.256 z m -0.197,-2.97 c 0.004,-0.338 0.05,-0.451 0.102,-0.252 0.051,0.2 0.048,0.476 -0.008,0.614 -0.057,0.14 -0.099,-0.024 -0.095,-0.362 z m -0.198,-3.993 c 0,-0.395 0.042,-0.556 0.094,-0.359 0.052,0.197 0.052,0.52 0,0.717 -0.051,0.197 -0.094,0.036 -0.094,-0.358 z m 232.58,-6.093 c -0.255,-0.325 -0.248,-0.332 0.077,-0.078 0.197,0.155 0.358,0.316 0.358,0.359 0,0.168 -0.168,0.06 -0.435,-0.281 z m -0.82,-1.024 c -0.254,-0.325 -0.247,-0.332 0.078,-0.078 0.34,0.268 0.45,0.436 0.28,0.436 -0.042,0 -0.203,-0.161 -0.358,-0.358 z M 43.724,270.885 c 0,-0.281 0.047,-0.397 0.103,-0.256 a 0.79,0.79 0 0 1 0,0.512 c -0.056,0.14 -0.103,0.026 -0.103,-0.256 z m 230.86,-0.46 -0.39,-0.461 0.461,0.39 c 0.253,0.214 0.46,0.422 0.46,0.46 0,0.164 -0.164,0.043 -0.53,-0.39 z m -2.036,-2.253 -1.016,-1.076 1.075,1.017 c 0.591,0.559 1.075,1.042 1.075,1.075 0,0.153 -0.19,-0.017 -1.134,-1.016 z m 102.689,-12.186 c -0.255,-0.325 -0.248,-0.332 0.077,-0.077 0.197,0.154 0.359,0.315 0.359,0.358 0,0.169 -0.169,0.06 -0.436,-0.281 z m -1.229,-1.434 c -0.255,-0.325 -0.247,-0.332 0.077,-0.077 0.342,0.268 0.45,0.436 0.282,0.436 -0.043,0 -0.204,-0.162 -0.359,-0.359 z m -1.433,-1.638 c -0.255,-0.325 -0.248,-0.332 0.077,-0.077 0.341,0.267 0.45,0.435 0.28,0.435 -0.042,0 -0.203,-0.16 -0.357,-0.358 z m -1.833,-2.048 -0.497,-0.563 0.564,0.496 c 0.31,0.273 0.563,0.527 0.563,0.563 0,0.161 -0.166,0.03 -0.63,-0.496 z m -4.495,-4.71 -1.736,-1.792 1.792,1.736 c 1.664,1.612 1.885,1.848 1.736,1.848 -0.03,0 -0.837,-0.807 -1.792,-1.792 z m -4.721,-4.506 -0.497,-0.563 0.564,0.496 c 0.31,0.273 0.563,0.527 0.563,0.563 0,0.161 -0.166,0.03 -0.63,-0.496 z m -2.154,-1.946 -0.39,-0.46 0.46,0.39 c 0.254,0.214 0.461,0.422 0.461,0.46 0,0.164 -0.165,0.043 -0.531,-0.39 z m -1.748,-1.536 c -0.255,-0.325 -0.247,-0.332 0.077,-0.077 0.198,0.155 0.359,0.316 0.359,0.358 0,0.169 -0.168,0.06 -0.436,-0.28 z m -2.662,-2.252 c -0.255,-0.325 -0.248,-0.333 0.077,-0.078 0.341,0.268 0.45,0.436 0.281,0.436 -0.042,0 -0.204,-0.161 -0.358,-0.358 z M 233.708,224.051 c 0.148,-0.06 0.324,-0.052 0.392,0.016 0.068,0.068 -0.053,0.116 -0.268,0.108 -0.239,-0.01 -0.288,-0.059 -0.124,-0.124 z m -40.96,-0.41 c 0.148,-0.059 0.324,-0.052 0.392,0.016 0.068,0.068 -0.053,0.117 -0.268,0.108 -0.239,-0.01 -0.288,-0.058 -0.124,-0.124 z m 36.864,0 c 0.148,-0.059 0.324,-0.052 0.392,0.016 0.068,0.068 -0.053,0.117 -0.268,0.108 -0.239,-0.01 -0.288,-0.058 -0.124,-0.124 z m -34.611,-0.205 c 0.147,-0.059 0.324,-0.051 0.392,0.017 0.068,0.068 -0.053,0.116 -0.269,0.107 -0.238,-0.01 -0.287,-0.058 -0.123,-0.124 z m 32.153,0 c 0.148,-0.059 0.325,-0.051 0.393,0.017 0.068,0.068 -0.053,0.116 -0.269,0.107 -0.239,-0.01 -0.287,-0.058 -0.124,-0.124 z m -29.504,-0.2 a 0.79,0.79 0 0 1 0.512,0 c 0.141,0.057 0.026,0.103 -0.256,0.103 -0.281,0 -0.397,-0.046 -0.256,-0.103 z m 26.42,0 a 0.79,0.79 0 0 1 0.511,0 c 0.141,0.057 0.026,0.103 -0.256,0.103 -0.281,0 -0.396,-0.046 -0.256,-0.103 z m -23.04,-0.21 c 0.197,-0.052 0.52,-0.052 0.716,0 0.197,0.051 0.036,0.093 -0.358,0.093 -0.394,0 -0.556,-0.042 -0.359,-0.093 z m 19.25,0 c 0.198,-0.052 0.52,-0.052 0.717,0 0.198,0.051 0.036,0.093 -0.358,0.093 -0.394,0 -0.555,-0.042 -0.358,-0.093 z m -13.107,-0.215 c 0.535,-0.042 1.411,-0.042 1.946,0 0.535,0.043 0.097,0.077 -0.973,0.077 -1.07,0 -1.508,-0.034 -0.973,-0.077 z m 5.741,0 a 13.31,13.31 0 0 1 1.843,0.001 c 0.476,0.043 0.035,0.078 -0.979,0.077 -1.014,0 -1.402,-0.036 -0.864,-0.078 z m -95.18,-0.77 c 0.211,-1.42 0.715,-2.606 1.005,-2.366 0.14,0.116 0.307,0.159 0.372,0.094 0.291,-0.291 -0.733,2.123 -1.094,2.579 l -0.406,0.512 z m 334.4,-4.08 c -0.582,-0.271 -1.541,-0.818 -2.133,-1.217 -0.89,-0.599 -1.079,-0.832 -1.094,-1.35 -0.01,-0.343 0.028,-0.621 0.084,-0.617 0.056,0.004 0.78,0.395 1.608,0.87 1.023,0.587 1.736,1.176 2.222,1.837 0.393,0.535 0.637,0.971 0.542,0.97 -0.095,0 -0.649,-0.223 -1.23,-0.493 z m -329.287,-4.215 c 0.204,-0.225 0.417,-0.41 0.473,-0.41 0.056,0 -0.064,0.185 -0.268,0.41 -0.204,0.225 -0.417,0.41 -0.473,0.41 -0.057,0 0.064,-0.185 0.268,-0.41 z m 13.652,-2.253 c 0,-0.281 0.046,-0.397 0.103,-0.256 a 0.79,0.79 0 0 1 0,0.512 c -0.057,0.14 -0.103,0.026 -0.103,-0.256 z m -11.194,-0.205 c 0.204,-0.225 0.416,-0.41 0.473,-0.41 0.056,0 -0.065,0.185 -0.269,0.41 -0.203,0.226 -0.416,0.41 -0.473,0.41 -0.056,0 0.065,-0.184 0.269,-0.41 z m 0.716,-0.487 c 0,-0.042 0.162,-0.203 0.359,-0.358 0.325,-0.255 0.332,-0.248 0.077,0.077 -0.267,0.341 -0.436,0.45 -0.436,0.281 z m 12.145,-1.151 c 0,-0.62 0.038,-0.873 0.085,-0.563 0.047,0.31 0.047,0.816 0,1.126 -0.047,0.31 -0.085,0.056 -0.085,-0.563 z m -14.807,-0.077 c 0,-0.043 0.161,-0.204 0.358,-0.359 0.325,-0.255 0.333,-0.247 0.078,0.078 -0.268,0.34 -0.436,0.45 -0.436,0.28 z m 8.346,-1.697 a 0.79,0.79 0 0 1 0.512,0 c 0.14,0.057 0.025,0.103 -0.256,0.103 -0.282,0 -0.397,-0.046 -0.256,-0.103 z m 1.65,-0.004 c 0.149,-0.06 0.325,-0.052 0.393,0.016 0.068,0.068 -0.053,0.117 -0.268,0.108 -0.239,-0.01 -0.288,-0.059 -0.124,-0.124 z m -7.743,-0.552 c 0,-0.042 0.161,-0.204 0.358,-0.358 0.325,-0.255 0.332,-0.248 0.078,0.077 -0.268,0.341 -0.436,0.45 -0.436,0.281 z m 291.801,-2.11 c 0.148,-0.06 0.325,-0.052 0.393,0.016 0.068,0.068 -0.053,0.116 -0.269,0.107 -0.238,-0.01 -0.287,-0.058 -0.124,-0.123 z m -5.12,-1.025 c 0.148,-0.059 0.325,-0.051 0.393,0.017 0.068,0.068 -0.053,0.116 -0.269,0.107 -0.238,-0.01 -0.287,-0.058 -0.124,-0.123 z m -1.024,-0.204 c 0.148,-0.06 0.325,-0.052 0.393,0.016 0.068,0.068 -0.053,0.116 -0.269,0.107 -0.238,-0.01 -0.287,-0.058 -0.124,-0.123 z m -1.228,-0.205 c 0.147,-0.06 0.324,-0.052 0.392,0.016 0.068,0.068 -0.053,0.117 -0.269,0.108 -0.238,-0.01 -0.287,-0.059 -0.123,-0.124 z m -1.23,-0.205 c 0.149,-0.06 0.325,-0.052 0.393,0.016 0.068,0.068 -0.053,0.117 -0.268,0.108 -0.239,-0.01 -0.288,-0.059 -0.124,-0.124 z m -1.228,-0.205 c 0.148,-0.059 0.325,-0.052 0.393,0.016 0.068,0.068 -0.053,0.117 -0.27,0.108 -0.238,-0.01 -0.286,-0.058 -0.123,-0.124 z m -1.229,-0.205 c 0.148,-0.059 0.325,-0.051 0.393,0.017 0.068,0.068 -0.053,0.116 -0.269,0.107 -0.239,-0.01 -0.287,-0.058 -0.124,-0.123 z m -1.229,-0.204 c 0.148,-0.06 0.325,-0.052 0.393,0.016 0.068,0.068 -0.053,0.116 -0.269,0.107 -0.238,-0.01 -0.287,-0.058 -0.124,-0.123 z m -1.228,-0.205 c 0.147,-0.06 0.324,-0.052 0.392,0.016 0.068,0.068 -0.053,0.117 -0.269,0.108 -0.238,-0.01 -0.287,-0.059 -0.123,-0.124 z m -1.434,-0.205 c 0.148,-0.06 0.325,-0.052 0.393,0.016 0.068,0.068 -0.053,0.117 -0.27,0.108 -0.238,-0.01 -0.286,-0.059 -0.123,-0.124 z m -1.651,-0.2 a 0.79,0.79 0 0 1 0.512,0 c 0.14,0.056 0.025,0.103 -0.256,0.103 -0.282,0 -0.397,-0.047 -0.256,-0.103 z m -2.458,-0.214 a 2.92,2.92 0 0 1 0.922,0 c 0.253,0.049 0.046,0.089 -0.461,0.089 -0.507,0 -0.714,-0.04 -0.46,-0.09 z m -132.288,-2.248 c 0.148,-0.06 0.325,-0.052 0.393,0.016 0.068,0.068 -0.053,0.116 -0.269,0.107 -0.239,-0.01 -0.287,-0.058 -0.124,-0.123 z m -2.675,-0.2 a 0.79,0.79 0 0 1 0.512,0 c 0.14,0.056 0.026,0.102 -0.256,0.102 -0.282,0 -0.397,-0.046 -0.256,-0.103 z m -3.072,-0.206 a 0.79,0.79 0 0 1 0.512,0 c 0.14,0.057 0.026,0.104 -0.256,0.104 -0.282,0 -0.397,-0.047 -0.256,-0.104 z m -4.298,-0.214 c 0.254,-0.049 0.623,-0.047 0.819,0.004 0.196,0.052 -0.013,0.092 -0.463,0.09 -0.45,-0.003 -0.611,-0.045 -0.356,-0.094 z m 146.89,-14.384 c -0.282,-0.086 -1.695,-0.769 -3.14,-1.516 -2.177,-1.126 -2.699,-1.321 -3.037,-1.14 -0.225,0.12 -0.368,0.326 -0.318,0.459 0.287,0.765 0.359,1.161 0.21,1.161 -0.323,0 -1.824,-2.814 -1.614,-3.024 0.226,-0.225 6.007,2.465 8.001,3.723 0.836,0.528 0.809,0.618 -0.102,0.337 z m -64.55,-11.006 c 0.147,-0.06 0.324,-0.052 0.392,0.016 0.068,0.068 -0.053,0.117 -0.269,0.108 -0.238,-0.01 -0.287,-0.059 -0.123,-0.124 z m -2.253,-0.205 c 0.148,-0.059 0.324,-0.052 0.392,0.016 0.068,0.068 -0.053,0.117 -0.268,0.108 -0.239,-0.01 -0.288,-0.058 -0.124,-0.124 z m -6.055,-0.206 c 0.198,-0.051 0.52,-0.051 0.717,0 0.197,0.052 0.036,0.094 -0.358,0.094 -0.394,0 -0.556,-0.042 -0.359,-0.094 z m 2.356,-0.003 a 2.92,2.92 0 0 1 0.921,0 c 0.254,0.049 0.046,0.089 -0.46,0.089 -0.507,0 -0.715,-0.04 -0.461,-0.089 z m -122.048,-4.91 c 0.147,-0.06 0.324,-0.052 0.392,0.016 0.068,0.068 -0.053,0.116 -0.269,0.107 -0.238,-0.01 -0.287,-0.058 -0.123,-0.123 z m 2.457,-0.205 c 0.148,-0.06 0.325,-0.052 0.393,0.016 0.068,0.068 -0.053,0.117 -0.269,0.108 -0.239,-0.01 -0.287,-0.059 -0.124,-0.124 z m 50.01,-7.54 c 0.264,-0.282 0.527,-0.512 0.583,-0.512 0.057,0 -0.114,0.23 -0.378,0.512 -0.265,0.281 -0.527,0.512 -0.584,0.512 -0.056,0 0.114,-0.23 0.379,-0.512 z m -36.864,-1.818 c 0,-0.043 0.161,-0.204 0.358,-0.359 0.325,-0.255 0.332,-0.247 0.078,0.078 -0.268,0.34 -0.436,0.45 -0.436,0.28 z m 14.131,-1.024 c 0,-0.043 0.161,-0.204 0.358,-0.359 0.325,-0.255 0.333,-0.247 0.078,0.078 -0.268,0.34 -0.436,0.45 -0.436,0.28 z m -11.366,-1.561 c 0.782,-0.789 1.468,-1.434 1.525,-1.434 0.056,0 -0.538,0.645 -1.32,1.434 -0.783,0.788 -1.47,1.433 -1.526,1.433 -0.056,0 0.538,-0.645 1.32,-1.433 z m 1.945,-2.126 c 0,-0.042 0.162,-0.204 0.359,-0.358 0.324,-0.255 0.332,-0.248 0.077,0.077 -0.268,0.341 -0.436,0.45 -0.436,0.281 z m 13.312,-0.205 c 0,-0.042 0.162,-0.203 0.359,-0.358 0.324,-0.255 0.332,-0.247 0.077,0.077 -0.268,0.341 -0.436,0.45 -0.436,0.281 z m 62.771,-15.282 c 0.204,-0.226 0.417,-0.41 0.474,-0.41 0.056,0 -0.065,0.184 -0.269,0.41 -0.204,0.225 -0.417,0.41 -0.473,0.41 -0.056,0 0.065,-0.185 0.268,-0.41 z m 1.434,-1.229 c 0.204,-0.225 0.417,-0.41 0.473,-0.41 0.056,0 -0.064,0.185 -0.268,0.41 -0.204,0.225 -0.417,0.41 -0.473,0.41 -0.057,0 0.064,-0.185 0.268,-0.41 z m 0.922,-0.692 c 0,-0.042 0.16,-0.204 0.358,-0.358 0.325,-0.255 0.332,-0.248 0.077,0.077 -0.267,0.341 -0.435,0.45 -0.435,0.281 z m 1.536,-1.356 c 0.204,-0.225 0.416,-0.41 0.473,-0.41 0.056,0 -0.065,0.185 -0.269,0.41 -0.203,0.225 -0.416,0.41 -0.473,0.41 -0.056,0 0.065,-0.185 0.269,-0.41 z m 1.126,-0.883 c 0,-0.036 0.3,-0.335 0.666,-0.666 l 0.665,-0.601 -0.601,0.665 c -0.561,0.62 -0.73,0.76 -0.73,0.602 z m -57.899,-0.916 c -0.193,-0.611 -0.186,-0.816 0.035,-1.041 0.616,-0.626 0.972,0.423 0.458,1.348 -0.244,0.44 -0.259,0.431 -0.493,-0.307 z m 60.869,-1.887 c 0.554,-0.564 1.054,-1.024 1.11,-1.024 0.057,0 -0.35,0.46 -0.906,1.024 -0.554,0.563 -1.054,1.024 -1.11,1.024 -0.057,0 0.35,-0.461 0.906,-1.024 z m 5.734,-5.735 c 0.555,-0.563 1.055,-1.024 1.111,-1.024 0.056,0 -0.351,0.461 -0.906,1.024 -0.555,0.563 -1.055,1.024 -1.111,1.024 -0.056,0 0.351,-0.46 0.906,-1.024 z m 1.74,-1.907 c 0,-0.035 0.3,-0.335 0.666,-0.666 l 0.666,-0.601 -0.601,0.665 c -0.561,0.62 -0.73,0.76 -0.73,0.602 z m 1.946,-2.189 c 0.204,-0.225 0.417,-0.41 0.474,-0.41 0.056,0 -0.065,0.185 -0.269,0.41 -0.204,0.225 -0.417,0.41 -0.473,0.41 -0.056,0 0.065,-0.185 0.268,-0.41 z m 0.922,-1.101 c 0,-0.043 0.161,-0.204 0.358,-0.359 0.325,-0.254 0.333,-0.247 0.078,0.078 -0.268,0.34 -0.436,0.45 -0.436,0.28 z m 1.024,-1.229 c 0,-0.042 0.161,-0.204 0.358,-0.358 0.325,-0.255 0.333,-0.248 0.078,0.077 -0.268,0.341 -0.436,0.45 -0.436,0.281 z m 0.82,-1.024 c 0,-0.042 0.16,-0.204 0.358,-0.358 0.324,-0.255 0.332,-0.248 0.077,0.077 -0.268,0.341 -0.436,0.45 -0.436,0.281 z m 1.433,-1.843 c 0,-0.043 0.161,-0.204 0.358,-0.359 0.325,-0.254 0.332,-0.247 0.078,0.078 -0.268,0.34 -0.436,0.45 -0.436,0.28 z m 0.614,-0.82 c 0,-0.042 0.162,-0.203 0.359,-0.358 0.324,-0.255 0.332,-0.247 0.077,0.078 -0.268,0.34 -0.436,0.45 -0.436,0.28 z m -17.408,-0.614 c 0,-0.042 0.162,-0.204 0.359,-0.358 0.324,-0.255 0.332,-0.248 0.077,0.077 -0.268,0.341 -0.436,0.45 -0.436,0.281 z m 18.023,-0.205 c 0,-0.042 0.16,-0.203 0.358,-0.358 0.325,-0.255 0.332,-0.247 0.077,0.077 -0.267,0.341 -0.435,0.45 -0.435,0.281 z m -16.282,-1.356 c 0.204,-0.225 0.417,-0.41 0.473,-0.41 0.056,0 -0.064,0.185 -0.268,0.41 -0.204,0.225 -0.417,0.41 -0.473,0.41 -0.057,0 0.064,-0.185 0.268,-0.41 z m 1.946,-1.74 c 0.264,-0.282 0.527,-0.513 0.583,-0.513 0.056,0 -0.114,0.23 -0.379,0.512 -0.264,0.282 -0.527,0.512 -0.583,0.512 -0.056,0 0.114,-0.23 0.379,-0.512 z m 4.403,-4.199 c 0.782,-0.789 1.469,-1.434 1.525,-1.434 0.056,0 -0.538,0.645 -1.32,1.434 -0.783,0.788 -1.469,1.434 -1.525,1.434 -0.057,0 0.537,-0.646 1.32,-1.434 z m 4.096,-4.3 c 0.204,-0.226 0.417,-0.41 0.473,-0.41 0.056,0 -0.064,0.184 -0.268,0.41 -0.204,0.224 -0.417,0.409 -0.473,0.409 -0.057,0 0.064,-0.185 0.268,-0.41 z m 1.74,-1.921 c 0,-0.043 0.162,-0.204 0.359,-0.359 0.325,-0.255 0.332,-0.247 0.077,0.078 -0.267,0.34 -0.435,0.45 -0.435,0.28 z m 3.482,-4.096 c 0,-0.043 0.162,-0.204 0.359,-0.359 0.324,-0.255 0.332,-0.247 0.077,0.078 -0.268,0.34 -0.436,0.45 -0.436,0.28 z m -6.963,-6.24 c 0,-0.208 0.176,-0.537 0.39,-0.731 0.352,-0.318 0.475,-0.325 1.242,-0.065 l 0.852,0.288 -1.158,0.443 c -1.396,0.534 -1.326,0.53 -1.326,0.065 z M 354.39,45.691 c 0.01,-0.238 0.058,-0.287 0.123,-0.124 0.06,0.148 0.052,0.325 -0.016,0.393 -0.068,0.068 -0.116,-0.053 -0.107,-0.269 z m 0.204,-2.253 c 0.01,-0.238 0.059,-0.287 0.124,-0.123 0.06,0.147 0.052,0.324 -0.016,0.392 -0.068,0.068 -0.117,-0.053 -0.108,-0.269 z m 0.221,-2.747 c 0,-0.282 0.047,-0.397 0.104,-0.256 a 0.79,0.79 0 0 1 0,0.512 c -0.057,0.14 -0.104,0.025 -0.104,-0.256 z m 0.213,-3.584 c 0.004,-0.338 0.05,-0.452 0.102,-0.253 0.052,0.2 0.048,0.476 -0.008,0.615 -0.056,0.139 -0.099,-0.025 -0.095,-0.362 z"
     style="display:inline;fill:#242e6f"
     id="path3" /><path
     d="m 196.37,457.763 c -2.253,-0.156 -4.692,-0.407 -5.42,-0.559 -1.23,-0.255 -0.89,-0.276 4.71,-0.292 8.255,-0.024 13.888,-0.492 21.846,-1.817 22.33,-3.717 45.758,-13.984 65.085,-28.523 10.158,-7.641 19.218,-16.394 26.011,-25.128 11.54,-14.84 17.931,-31.678 17.915,-47.205 -0.006,-5.405 -0.599,-9.786 -2.159,-15.943 -1.067,-4.212 -1.08,-4.135 1.04,-6.303 0.758,-0.775 2.095,-2.492 2.971,-3.814 2.902,-4.38 4.569,-8.146 5.846,-13.208 0.376,-1.49 0.796,-2.918 0.934,-3.174 0.237,-0.44 0.295,-0.374 1.03,1.173 3.446,7.261 5.82,15.475 7.071,24.474 0.55,3.952 0.5,12.146 -0.1,16.589 -0.9,6.652 -2.57,13.61 -4.642,19.324 -8.691,23.977 -29.213,47.084 -55.507,62.5 -4.14,2.427 -12.91,6.885 -17.306,8.798 -11.095,4.826 -23.14,8.526 -34.611,10.632 -11.112,2.04 -25.834,3.09 -34.714,2.476 z m 205.328,-87.261 c 0.01,-0.239 0.059,-0.287 0.124,-0.124 0.06,0.148 0.052,0.325 -0.016,0.393 -0.068,0.068 -0.116,-0.053 -0.108,-0.269 z m 0.017,-14.217 c 0,-0.281 0.046,-0.396 0.103,-0.256 a 0.79,0.79 0 0 1 0,0.512 c -0.057,0.141 -0.103,0.026 -0.103,-0.256 z m -0.221,-3.805 c 0.01,-0.239 0.058,-0.288 0.123,-0.124 0.06,0.148 0.052,0.324 -0.016,0.392 -0.068,0.068 -0.116,-0.053 -0.107,-0.268 z m -112.26,-10.991 c 2.338,-5.07 3.976,-10.703 4.986,-17.15 0.364,-2.323 0.435,-3.704 0.444,-8.604 0.01,-6.123 -0.1,-7.427 -1.035,-12.083 -1.025,-5.11 -2.55,-9.62 -4.892,-14.479 -3.732,-7.738 -7.595,-13.128 -12.815,-17.88 -1.176,-1.07 -2.875,-2.76 -3.776,-3.757 -0.9,-0.997 -2.053,-2.088 -2.56,-2.425 -0.507,-0.337 -0.748,-0.557 -0.536,-0.488 0.702,0.227 4.28,2.403 7.397,4.498 15.14,10.175 24.593,23.091 28.645,39.139 0.973,3.852 1.594,8.302 1.873,13.414 0.166,3.049 -0.24,9.465 -0.611,9.675 -0.148,0.083 -1.085,0.827 -2.083,1.653 -2.704,2.238 -6.072,4.764 -8.288,6.217 -1.981,1.298 -6.89,3.96 -7.306,3.96 -0.122,0 0.128,-0.761 0.557,-1.69 z m 28.89,-1.485 c 0.264,-0.282 0.527,-0.512 0.583,-0.512 0.057,0 -0.114,0.23 -0.378,0.512 -0.265,0.281 -0.527,0.512 -0.584,0.512 -0.056,0 0.114,-0.23 0.379,-0.512 z m 34.38,-86.272 c -0.255,-0.325 -0.247,-0.332 0.077,-0.077 0.198,0.154 0.359,0.315 0.359,0.358 0,0.168 -0.168,0.06 -0.436,-0.281 z M 204.217,232.037 c 0.147,-0.06 0.324,-0.052 0.392,0.016 0.068,0.068 -0.053,0.116 -0.269,0.108 -0.238,-0.01 -0.287,-0.059 -0.123,-0.124 z m -16.384,-0.205 c 0.147,-0.06 0.324,-0.052 0.392,0.016 0.068,0.068 -0.053,0.117 -0.269,0.108 -0.238,-0.01 -0.287,-0.059 -0.123,-0.124 z m 12.684,0.004 a 0.79,0.79 0 0 1 0.512,0 c 0.141,0.057 0.026,0.103 -0.256,0.103 -0.281,0 -0.396,-0.046 -0.256,-0.103 z"
     style="display:inline;fill:#0d1e64"
     id="path4" /><path
     d="m 190.738,456.826 a 663.076,663.076 0 0 0 -3.686,-0.258 c -1.788,-0.116 -7.175,-0.9 -10.841,-1.578 -18.096,-3.35 -39.88,-12.767 -53.804,-23.262 -1.846,-1.39 -3.7,-2.705 -4.122,-2.92 -0.421,-0.215 -1.356,-0.917 -2.077,-1.56 -0.721,-0.644 -1.658,-1.322 -2.083,-1.506 -0.95,-0.414 -6.596,-5.638 -11.233,-10.394 -12.758,-13.083 -23.403,-27.326 -32.435,-43.395 -2.376,-4.227 -7.63,-14.966 -9.62,-19.661 -9.42,-22.23 -14.987,-44.69 -16.623,-67.072 -0.436,-5.96 -0.605,-11.442 -0.427,-13.813 l 0.154,-2.038 0.66,1.935 c 2.713,7.957 13.14,27.675 20.248,38.287 13.45,20.082 27.985,35.002 45.469,46.677 6.535,4.364 16.5,9.7 23.486,12.575 22.21,9.142 45.308,11.78 70.041,8 25.619,-3.914 50.944,-16.63 66.023,-33.15 9.737,-10.667 15.457,-21.739 17.248,-33.385 0.517,-3.358 0.472,-9.588 -0.095,-13.312 -1.467,-9.637 -5.45,-18.388 -11.837,-26.01 l -1.373,-1.638 2.121,1.945 c 5.261,4.826 9.082,10.16 12.805,17.88 2.343,4.858 3.867,9.369 4.892,14.479 0.934,4.656 1.046,5.96 1.035,12.083 -0.01,4.9 -0.08,6.281 -0.444,8.604 -1.01,6.447 -2.648,12.08 -4.986,17.15 -0.429,0.929 -0.68,1.69 -0.556,1.69 0.387,0 5.227,-2.603 7.083,-3.81 2.177,-1.415 5.564,-3.947 8.435,-6.304 1.181,-0.971 2.216,-1.765 2.299,-1.765 0.082,0 0.108,0.253 0.056,0.563 l -0.616,3.738 c -0.824,5.004 -2.183,10.708 -3.722,15.619 -0.073,0.235 0.949,-0.29 2.933,-1.51 6.462,-3.97 9.687,-6.427 14.587,-11.117 1.955,-1.871 3.624,-3.402 3.708,-3.402 0.214,0 1.768,6.373 2.248,9.216 2.244,13.308 -0.174,27.437 -7.041,41.14 -7.388,14.744 -19.618,28.66 -36.057,41.025 -21.38,16.083 -47.512,26.789 -72.09,29.532 -6.542,0.73 -15.26,1.049 -19.763,0.722 z m 187.606,-20.83 c -0.013,-0.667 0.607,-1.783 1.84,-3.312 3.706,-4.6 9.42,-14.805 12.561,-22.434 3.937,-9.562 7.016,-21.215 8.309,-31.437 0.726,-5.744 0.894,-9.661 0.771,-18.022 -0.12,-8.195 -0.343,-11.298 -1.278,-17.818 -3.445,-24.018 -14.299,-49.247 -29.932,-69.578 -6.663,-8.665 -15.8,-18.097 -24.536,-25.33 -15.01,-12.428 -31.015,-21.298 -49.562,-27.47 -11.836,-3.938 -21.013,-5.88 -34.816,-7.37 a 214.33,214.33 0 0 1 -3.686,-0.42 c -0.362,-0.051 -1.96,-1.058 -3.891,-2.452 -5.657,-4.084 -12.177,-8.09 -16.026,-9.846 -0.898,-0.41 -1.485,-0.802 -1.485,-0.99 0,-0.276 1.045,-0.313 8.756,-0.311 11.932,0.003 19.15,0.4 28.06,1.544 27.317,3.51 51.541,12.992 73.162,28.641 10.394,7.523 20.8,17.207 28.965,26.954 19.546,23.334 31.424,52.267 34.641,84.376 0.448,4.469 0.624,16.63 0.308,21.232 -1.38,20.098 -7.229,38.458 -17.796,55.875 -4.601,7.583 -7.7,11.791 -11.754,15.96 -2.093,2.153 -2.604,2.585 -2.611,2.208 z m -258.76,-184.75 c -0.21,-0.341 10.838,-7.417 16.575,-10.616 14.654,-8.168 30.627,-13.344 49.45,-16.027 8.599,-1.225 15.342,-1.667 25.404,-1.666 11.346,0.002 20.162,0.643 31.368,2.282 7.517,1.1 19.074,3.405 19.953,3.981 0.572,0.375 3.137,3.417 5.207,6.174 2.642,3.52 7.165,10.733 7.165,11.425 0,0.573 -0.744,0.787 -1.456,0.419 -0.909,-0.47 -5.992,-2.286 -10.87,-3.883 -14.911,-4.882 -31.827,-8.694 -44.92,-10.124 -10.231,-1.117 -13.978,-1.335 -23.035,-1.336 -10.574,-0.002 -16.729,0.492 -26.87,2.158 -16.517,2.715 -32.88,8.437 -45.004,15.737 -1.514,0.912 -2.776,1.658 -2.803,1.658 -0.028,0 -0.102,-0.082 -0.163,-0.182 z m -0.897,-31.619 c -0.257,-0.309 0.414,-2.453 1.51,-4.825 2.025,-4.384 5.916,-8.573 9.532,-10.265 2.731,-1.278 4.813,-1.327 6.38,-0.148 1.338,1.008 1.866,2.27 1.963,4.697 0.085,2.118 -0.11,3.25 -0.853,4.963 l -0.446,1.027 -0.102,-2.157 c -0.084,-1.776 -0.194,-2.334 -0.62,-3.16 -1.303,-2.531 -4.276,-2.57 -8.42,-0.108 -2.88,1.712 -6.141,5.409 -7.977,9.046 -0.33,0.655 -0.635,1.192 -0.676,1.192 -0.04,0 -0.172,-0.118 -0.291,-0.262 z m 328.256,-4.686 c -8.898,-4.195 -20.234,-7.876 -31.076,-10.093 -6.837,-1.399 -15.726,-2.777 -17.905,-2.777 -0.905,0 -1.31,-0.217 -5.845,-3.135 -6.257,-4.026 -8.882,-5.626 -12.583,-7.674 -14.853,-8.217 -31.778,-14.203 -47.893,-16.937 -2.747,-0.465 -2.997,-0.585 -1.536,-0.733 2.658,-0.268 10.355,0.428 17.305,1.566 17.948,2.938 34.92,8.354 50.535,16.124 1.975,0.982 3.532,1.647 3.532,1.506 0,-0.453 -1.403,-3.193 -2.937,-5.734 -0.828,-1.371 -1.66,-2.954 -1.849,-3.517 -0.323,-0.964 -0.323,-1.038 0.012,-1.282 0.195,-0.143 0.414,-0.236 0.486,-0.206 0.073,0.03 1.367,0.67 2.876,1.422 1.509,0.752 3.16,1.512 3.67,1.689 1.202,0.416 8.855,4.625 13.82,7.6 9.857,5.906 19.869,12.843 28.364,19.653 2.963,2.375 3.064,2.475 3.069,3.021 0,0.469 -0.013,0.465 -2.045,-0.493 z M 208.269,167.462 c 8.627,-2.518 13.003,-4.636 18.147,-8.783 4.4,-3.549 8.247,-9.173 9.806,-14.336 l 0.49,-1.623 4.77,-2.308 c 5.209,-2.519 8.39,-4.32 10.699,-6.057 1.685,-1.268 1.927,-1.219 1.761,0.357 -0.165,1.577 -1.91,6.47 -3.392,9.514 -6.228,12.788 -17.427,21.039 -31.788,23.42 -3.443,0.57 -9.011,1.045 -12.076,1.03 l -2.533,-0.012 z m 52.101,-3.646 c 0,-0.202 0.427,-0.778 0.948,-1.28 5.72,-5.513 11.075,-14.518 13.929,-23.427 0.787,-2.46 1.208,-2.863 4.272,-4.096 6.01,-2.418 13.859,-6.569 19.866,-10.508 13.136,-8.613 24.164,-19.245 35.211,-33.948 l 2,-2.662 -0.685,-0.071 c -1.122,-0.117 -3.366,0.367 -6.54,1.41 -3.737,1.229 -5.297,1.556 -5.896,1.235 -0.24,-0.128 -0.436,-0.299 -0.436,-0.38 0,-0.08 0.84,-1.16 1.864,-2.399 7.033,-8.499 14.057,-19.274 19.038,-29.207 4.127,-8.23 8.898,-20.346 9.735,-24.725 0.285,-1.489 0.848,-2.49 1.399,-2.49 0.154,0 0.178,1.09 0.079,3.635 -0.489,12.565 -2.053,23.655 -5.079,35.994 -0.663,2.703 -1.27,5.283 -1.349,5.734 -0.175,0.996 -2.186,6.76 -3.686,10.563 -5.901,14.963 -13.233,26.628 -24.268,38.61 -4.721,5.125 -12.619,12.18 -15.96,14.257 -0.845,0.525 -2.937,1.997 -4.648,3.271 -8.614,6.412 -22.892,14.173 -35.595,19.35 -2.028,0.825 -3.802,1.501 -3.943,1.501 -0.14,0 -0.256,-0.165 -0.256,-0.367 z"
     style="fill:#141e41"
     id="path5" /></svg>
