<svg xmlns="http://www.w3.org/2000/svg" xml:space="preserve" width="512" height="512" fill-rule="evenodd" clip-rule="evenodd" image-rendering="optimizeQuality" shape-rendering="geometricPrecision" text-rendering="geometricPrecision"><path fill="#5865f2" d="M105 0h302c57.928.155 104.845 47.072 105 104.996V407c-.155 57.926-47.072 104.844-104.996 104.998L105 512C47.074 511.844.156 464.926.002 407.003L0 105C.156 47.072 47.074.155 104.997 0Z" style="fill:#ff4500;fill-opacity:1"/><path d="M422.016 258.232c-.743-20.077-17.598-35.754-37.737-35.073-8.923.31-17.412 3.966-23.857 10.1-28.38-19.333-61.718-29.929-95.985-30.672l16.173-77.768 53.353 11.216c1.487 13.695 13.756 23.61 27.45 22.122 13.695-1.487 23.61-13.756 22.122-27.45-1.487-13.695-13.756-23.61-27.45-22.123-7.87.806-14.934 5.391-18.838 12.208l-61.098-12.208a7.723 7.723 0 0 0-9.233 5.887v.124L248.512 201.1a178.568 178.568 0 0 0-97.225 30.673c-14.623-13.756-37.675-13.074-51.431 1.612-13.757 14.624-13.075 37.675 1.61 51.431 2.851 2.665 6.136 4.957 9.792 6.569a80.98 80.98 0 0 0 0 10.968c0 55.83 65.064 101.252 145.31 101.252 80.245 0 145.31-45.36 145.31-101.252a80.983 80.983 0 0 0 0-10.968c12.516-6.259 20.386-19.148 20.138-33.152zm-249.288 24.972c0-13.756 11.215-24.972 24.972-24.972 13.756 0 24.972 11.216 24.972 24.972 0 13.757-11.216 24.972-24.972 24.972-13.819-.124-24.972-11.215-24.972-24.972zm144.814 68.534c-17.722 13.323-39.41 20.14-61.594 19.21-22.184.93-43.872-5.887-61.594-19.21-2.355-2.85-1.921-7.126.93-9.48 2.478-2.045 6.01-2.045 8.55 0 14.996 10.967 33.276 16.544 51.866 15.677a82.048 82.048 0 0 0 52.113-15.182c2.727-2.664 7.188-2.602 9.853.124 2.664 2.727 2.602 7.188-.124 9.853zm-4.462-42.694c-13.756 0-24.972-11.216-24.972-24.972 0-13.757 11.216-24.973 24.972-24.973 13.757 0 24.972 11.216 24.972 24.973.558 13.756-10.162 25.344-23.918 25.901h-1.24z" class="st1" style="fill:#fff;stroke-width:.619658"/></svg>