<svg xmlns="http://www.w3.org/2000/svg" xml:space="preserve" width="512" height="512" fill-rule="evenodd" clip-rule="evenodd" image-rendering="optimizeQuality" shape-rendering="geometricPrecision" text-rendering="geometricPrecision"><path fill="#5865f2" d="M105 0h302c57.928.155 104.845 47.072 105 104.996V407c-.155 57.926-47.072 104.844-104.996 104.998L105 512C47.074 511.844.156 464.926.002 407.003L0 105C.156 47.072 47.074.155 104.997 0Z" style="fill:#36a6de;fill-opacity:1"/><path d="m129.065 240.516 172.373-70.998c17.01-7.395 74.696-31.061 74.696-31.061s26.624-10.354 24.405 14.791c-.74 10.354-6.656 46.592-12.573 85.845l-18.488 116.168s-1.48 17.01-14.052 19.968c-12.572 2.958-33.28-10.354-36.978-13.312-2.958-2.22-55.466-35.5-74.695-51.77-5.177-4.437-11.093-13.311.74-23.665 26.624-24.405 58.425-54.727 77.653-73.956 8.875-8.874 17.75-29.582-19.228-4.437l-104.335 70.144s-11.833 7.396-34.02.74c-22.186-6.656-48.07-15.531-48.07-15.531s-17.75-11.093 12.572-22.926z" class="st2" style="fill:#fff;stroke-width:.568889"/></svg>